<svg xmlns="http://www.w3.org/2000/svg" xmlns:xlink="http://www.w3.org/1999/xlink" viewBox="0 0 508.87 275.13"><defs><style>.cls-1{fill:none;}.cls-2{isolation:isolate;}.cls-3{clip-path:url(#clip-path);}.cls-4{opacity:0.33;mix-blend-mode:overlay;}.cls-5{fill:#eef0f1;}.cls-6{fill:#e1dfe1;}.cls-7{fill:#d3d2d1;}.cls-8{fill:#c8c7c5;}.cls-9{fill:#b6b3b3;}.cls-10{fill:#acaaab;}.cls-11{fill:#989694;}.cls-12{fill:#8b8a89;}.cls-13{fill:gray;}.cls-14{fill:#7d7d7c;}.cls-15{fill:#696967;}.cls-16{fill:#565654;}.cls-17{fill:#4c494a;}.cls-18{fill:#2b2b29;}.cls-19{fill:#383837;}.cls-20{fill:#21221f;}</style><clipPath id="clip-path" transform="translate(-78.71 -31.04)"><polygon id="_Clipping_Path_" data-name="&lt;Clipping Path&gt;" class="cls-1" points="629.37 0.5 476.32 297.53 0 297.03 152.9 0 629.37 0.5"/></clipPath></defs><title>pattern-2</title><g class="cls-2"><g id="Layer_2" data-name="Layer 2"><g id="Layer_1-2" data-name="Layer 1"><g id="_Clip_Group_" data-name="&lt;Clip Group&gt;"><g class="cls-3"><g id="_Group_" data-name="&lt;Group&gt;"><g id="_Group_2" data-name="&lt;Group&gt;" class="cls-4"><g id="_Group_3" data-name="&lt;Group&gt;"><g id="_Group_4" data-name="&lt;Group&gt;"><g id="_Group_5" data-name="&lt;Group&gt;"><polygon id="_Path_" data-name="&lt;Path&gt;" class="cls-5" points="237.76 21.53 226.93 21.55 232.37 32.09 237.79 42.63 243.19 32.08 248.58 21.52 237.76 21.53"/><polygon id="_Path_2" data-name="&lt;Path&gt;" class="cls-6" points="226.97 42.65 237.79 42.63 232.36 32.09 226.93 21.55 221.54 32.11 216.14 42.67 226.97 42.65"/><polygon id="_Path_3" data-name="&lt;Path&gt;" class="cls-5" points="216.11 21.57 205.28 21.59 210.71 32.13 216.14 42.67 221.54 32.11 226.93 21.55 216.11 21.57"/><polygon id="_Path_4" data-name="&lt;Path&gt;" class="cls-6" points="205.32 42.69 216.14 42.67 210.71 32.13 205.28 21.59 199.89 32.15 194.49 42.71 205.32 42.69"/><polygon id="_Path_5" data-name="&lt;Path&gt;" class="cls-7" points="194.46 21.61 183.63 21.63 189.06 32.17 194.49 42.71 199.89 32.15 205.28 21.59 194.46 21.61"/><polygon id="_Path_6" data-name="&lt;Path&gt;" class="cls-6" points="183.67 42.73 194.49 42.71 189.06 32.17 183.63 21.63 178.24 32.19 172.84 42.74 183.67 42.73"/><polygon id="_Path_7" data-name="&lt;Path&gt;" class="cls-5" points="172.81 21.64 161.98 21.66 167.41 32.2 172.84 42.74 178.24 32.19 183.63 21.63 172.81 21.64"/><polygon id="_Path_8" data-name="&lt;Path&gt;" class="cls-7" points="162.02 42.76 172.84 42.74 167.41 32.2 161.98 21.66 156.59 32.22 151.19 42.78 162.02 42.76"/><polygon id="_Path_9" data-name="&lt;Path&gt;" class="cls-5" points="151.16 21.68 140.33 21.7 145.76 32.24 151.19 42.78 156.59 32.22 161.98 21.66 151.16 21.68"/><polygon id="_Path_10" data-name="&lt;Path&gt;" class="cls-6" points="140.37 42.8 151.19 42.78 145.76 32.24 140.33 21.7 134.94 32.26 129.54 42.82 140.37 42.8"/><polygon id="_Path_11" data-name="&lt;Path&gt;" class="cls-7" points="129.51 21.72 118.68 21.73 124.11 32.28 129.54 42.82 134.94 32.26 140.33 21.7 129.51 21.72"/><polygon id="_Path_12" data-name="&lt;Path&gt;" class="cls-5" points="118.72 42.83 129.54 42.82 124.11 32.28 118.68 21.73 113.29 32.29 107.9 42.85 118.72 42.83"/><polygon id="_Path_13" data-name="&lt;Path&gt;" class="cls-6" points="107.86 21.75 97.03 21.77 102.47 32.31 107.9 42.85 113.29 32.29 118.68 21.73 107.86 21.75"/><polygon id="_Path_14" data-name="&lt;Path&gt;" class="cls-7" points="97.07 42.87 107.9 42.85 102.47 32.31 97.03 21.77 91.64 32.33 86.24 42.89 97.07 42.87"/><polygon id="_Path_15" data-name="&lt;Path&gt;" class="cls-5" points="86.21 21.79 75.39 21.81 80.81 32.35 86.24 42.89 91.64 32.33 97.03 21.77 86.21 21.79"/><polygon id="_Path_16" data-name="&lt;Path&gt;" class="cls-6" points="75.42 42.91 86.24 42.89 80.81 32.35 75.39 21.81 69.99 32.37 64.59 42.92 75.42 42.91"/><polygon id="_Path_17" data-name="&lt;Path&gt;" class="cls-5" points="64.56 21.82 53.73 21.84 59.16 32.38 64.59 42.92 69.99 32.37 75.39 21.81 64.56 21.82"/><polygon id="_Path_18" data-name="&lt;Path&gt;" class="cls-6" points="53.77 42.94 64.59 42.92 59.16 32.38 53.73 21.84 48.34 32.4 42.94 42.96 53.77 42.94"/><polygon id="_Path_19" data-name="&lt;Path&gt;" class="cls-7" points="42.91 21.86 32.08 21.88 37.52 32.42 42.94 42.96 48.34 32.4 53.73 21.84 42.91 21.86"/><polygon id="_Path_20" data-name="&lt;Path&gt;" class="cls-5" points="32.12 42.98 42.94 42.96 37.51 32.42 32.08 21.88 26.69 32.44 21.3 43 32.12 42.98"/><polygon id="_Path_21" data-name="&lt;Path&gt;" class="cls-6" points="21.26 21.9 10.44 21.92 15.87 32.46 21.3 43 26.69 32.44 32.08 21.88 21.26 21.9"/><polygon id="_Path_22" data-name="&lt;Path&gt;" class="cls-7" points="237.83 63.74 227 63.76 232.4 53.2 237.79 42.63 243.23 53.18 248.65 63.72 237.83 63.74"/><polygon id="_Path_23" data-name="&lt;Path&gt;" class="cls-8" points="226.97 42.65 237.79 42.63 232.4 53.2 227 63.76 221.57 53.21 216.14 42.67 226.97 42.65"/><polygon id="_Path_24" data-name="&lt;Path&gt;" class="cls-7" points="216.18 63.77 205.35 63.79 210.75 53.23 216.14 42.67 221.57 53.21 227 63.76 216.18 63.77"/><polygon id="_Path_25" data-name="&lt;Path&gt;" class="cls-5" points="205.32 42.69 216.14 42.67 210.75 53.23 205.35 63.79 199.92 53.25 194.49 42.71 205.32 42.69"/><polygon id="_Path_26" data-name="&lt;Path&gt;" class="cls-8" points="194.53 63.81 183.7 63.83 189.1 53.27 194.49 42.71 199.92 53.25 205.35 63.79 194.53 63.81"/><polygon id="_Path_27" data-name="&lt;Path&gt;" class="cls-5" points="183.67 42.73 194.49 42.71 189.1 53.27 183.7 63.83 178.27 53.29 172.84 42.74 183.67 42.73"/><polygon id="_Path_28" data-name="&lt;Path&gt;" class="cls-7" points="172.88 63.84 162.05 63.86 167.45 53.3 172.84 42.74 178.27 53.29 183.7 63.83 172.88 63.84"/><polygon id="_Path_29" data-name="&lt;Path&gt;" class="cls-6" points="162.02 42.76 172.84 42.74 167.45 53.3 162.05 63.86 156.62 53.32 151.19 42.78 162.02 42.76"/><polygon id="_Path_30" data-name="&lt;Path&gt;" class="cls-7" points="151.23 63.88 140.41 63.9 145.8 53.34 151.19 42.78 156.62 53.32 162.05 63.86 151.23 63.88"/><polygon id="_Path_31" data-name="&lt;Path&gt;" class="cls-5" points="140.37 42.8 151.19 42.78 145.8 53.34 140.41 63.9 134.97 53.36 129.54 42.82 140.37 42.8"/><polygon id="_Path_32" data-name="&lt;Path&gt;" class="cls-8" points="129.58 63.92 118.75 63.94 124.15 53.38 129.54 42.82 134.97 53.36 140.41 63.9 129.58 63.92"/><polygon id="_Path_33" data-name="&lt;Path&gt;" class="cls-7" points="118.72 42.83 129.54 42.82 124.15 53.38 118.75 63.94 113.33 53.4 107.9 42.85 118.72 42.83"/><polygon id="_Path_34" data-name="&lt;Path&gt;" class="cls-8" points="107.93 63.95 97.1 63.97 102.5 53.41 107.9 42.85 113.32 53.4 118.75 63.94 107.93 63.95"/><polygon id="_Path_35" data-name="&lt;Path&gt;" class="cls-5" points="97.07 42.87 107.9 42.85 102.5 53.41 97.1 63.97 91.68 53.43 86.24 42.89 97.07 42.87"/><polygon id="_Path_36" data-name="&lt;Path&gt;" class="cls-7" points="86.28 63.99 75.45 64.01 80.85 53.45 86.24 42.89 91.67 53.43 97.1 63.97 86.28 63.99"/><polygon id="_Path_37" data-name="&lt;Path&gt;" class="cls-8" points="75.42 42.91 86.24 42.89 80.85 53.45 75.45 64.01 70.03 53.47 64.59 42.92 75.42 42.91"/><polygon id="_Path_38" data-name="&lt;Path&gt;" class="cls-7" points="64.63 64.03 53.8 64.05 59.2 53.48 64.59 42.92 70.03 53.47 75.45 64.01 64.63 64.03"/><polygon id="_Path_39" data-name="&lt;Path&gt;" class="cls-5" points="53.77 42.94 64.59 42.92 59.2 53.48 53.8 64.05 48.38 53.5 42.94 42.96 53.77 42.94"/><polygon id="_Path_40" data-name="&lt;Path&gt;" class="cls-8" points="42.98 64.06 32.16 64.08 37.55 53.52 42.94 42.96 48.38 53.5 53.8 64.05 42.98 64.06"/><polygon id="_Path_41" data-name="&lt;Path&gt;" class="cls-6" points="32.12 42.98 42.94 42.96 37.55 53.52 32.16 64.08 26.73 53.54 21.3 43 32.12 42.98"/><polygon id="_Path_42" data-name="&lt;Path&gt;" class="cls-7" points="21.33 64.1 10.51 64.12 15.9 53.56 21.3 43 26.73 53.54 32.16 64.08 21.33 64.1"/><polygon id="_Path_43" data-name="&lt;Path&gt;" class="cls-9" points="237.83 63.74 227 63.76 232.44 74.3 237.87 84.84 243.26 74.28 248.65 63.72 237.83 63.74"/><polygon id="_Path_44" data-name="&lt;Path&gt;" class="cls-8" points="227.04 84.86 237.87 84.84 232.43 74.3 227 63.76 221.61 74.31 216.21 84.88 227.04 84.86"/><polygon id="_Path_45" data-name="&lt;Path&gt;" class="cls-9" points="216.18 63.77 205.35 63.79 210.78 74.33 216.21 84.88 221.61 74.31 227 63.76 216.18 63.77"/><polygon id="_Path_46" data-name="&lt;Path&gt;" class="cls-6" points="205.39 84.89 216.21 84.88 210.78 74.33 205.35 63.79 199.96 74.35 194.56 84.91 205.39 84.89"/><polygon id="_Path_47" data-name="&lt;Path&gt;" class="cls-7" points="194.53 63.81 183.7 63.83 189.13 74.37 194.56 84.91 199.96 74.35 205.35 63.79 194.53 63.81"/><polygon id="_Path_48" data-name="&lt;Path&gt;" class="cls-9" points="183.74 84.93 194.56 84.91 189.13 74.37 183.7 63.83 178.31 74.39 172.91 84.95 183.74 84.93"/><polygon id="_Path_49" data-name="&lt;Path&gt;" class="cls-6" points="172.88 63.84 162.05 63.86 167.48 74.41 172.91 84.95 178.31 74.39 183.7 63.83 172.88 63.84"/><polygon id="_Path_50" data-name="&lt;Path&gt;" class="cls-9" points="162.09 84.97 172.91 84.95 167.48 74.41 162.05 63.86 156.66 74.42 151.26 84.98 162.09 84.97"/><polygon id="_Path_51" data-name="&lt;Path&gt;" class="cls-10" points="151.23 63.88 140.41 63.9 145.84 74.44 151.26 84.98 156.66 74.42 162.05 63.86 151.23 63.88"/><polygon id="_Path_52" data-name="&lt;Path&gt;" class="cls-6" points="140.44 85 151.26 84.98 145.83 74.44 140.41 63.9 135.01 74.46 129.61 85.02 140.44 85"/><polygon id="_Path_53" data-name="&lt;Path&gt;" class="cls-7" points="129.58 63.92 118.75 63.94 124.19 74.48 129.61 85.02 135.01 74.46 140.41 63.9 129.58 63.92"/><polygon id="_Path_54" data-name="&lt;Path&gt;" class="cls-9" points="118.79 85.04 129.61 85.02 124.19 74.48 118.75 63.94 113.36 74.5 107.97 85.06 118.79 85.04"/><polygon id="_Path_55" data-name="&lt;Path&gt;" class="cls-7" points="107.93 63.95 97.1 63.97 102.54 74.51 107.97 85.06 113.36 74.5 118.75 63.94 107.93 63.95"/><polygon id="_Path_56" data-name="&lt;Path&gt;" class="cls-9" points="97.14 85.08 107.97 85.06 102.54 74.51 97.1 63.97 91.71 74.53 86.31 85.09 97.14 85.08"/><polygon id="_Path_57" data-name="&lt;Path&gt;" class="cls-6" points="86.28 63.99 75.45 64.01 80.89 74.55 86.31 85.09 91.71 74.53 97.1 63.97 86.28 63.99"/><polygon id="_Path_58" data-name="&lt;Path&gt;" class="cls-9" points="75.49 85.11 86.31 85.09 80.89 74.55 75.45 64.01 70.06 74.57 64.67 85.13 75.49 85.11"/><polygon id="_Path_59" data-name="&lt;Path&gt;" class="cls-6" points="64.63 64.03 53.8 64.05 59.23 74.59 64.67 85.13 70.06 74.57 75.45 64.01 64.63 64.03"/><polygon id="_Path_60" data-name="&lt;Path&gt;" class="cls-10" points="53.84 85.15 64.67 85.13 59.23 74.59 53.8 64.05 48.41 74.61 43.02 85.17 53.84 85.15"/><polygon id="_Path_61" data-name="&lt;Path&gt;" class="cls-7" points="42.98 64.06 32.16 64.08 37.59 74.62 43.02 85.17 48.41 74.61 53.8 64.05 42.98 64.06"/><polygon id="_Path_62" data-name="&lt;Path&gt;" class="cls-9" points="32.19 85.18 43.02 85.17 37.58 74.62 32.16 64.08 26.76 74.64 21.37 85.2 32.19 85.18"/><polygon id="_Path_63" data-name="&lt;Path&gt;" class="cls-6" points="21.33 64.1 10.51 64.12 15.94 74.66 21.37 85.2 26.76 74.64 32.16 64.08 21.33 64.1"/><polygon id="_Path_64" data-name="&lt;Path&gt;" class="cls-11" points="237.9 105.94 227.07 105.96 232.47 95.4 237.87 84.84 243.3 95.38 248.72 105.92 237.9 105.94"/><polygon id="_Path_65" data-name="&lt;Path&gt;" class="cls-10" points="227.04 84.86 237.87 84.84 232.47 95.4 227.07 105.96 221.64 95.42 216.21 84.88 227.04 84.86"/><polygon id="_Path_66" data-name="&lt;Path&gt;" class="cls-11" points="216.25 105.98 205.43 106 210.82 95.43 216.21 84.88 221.64 95.42 227.07 105.96 216.25 105.98"/><polygon id="_Path_67" data-name="&lt;Path&gt;" class="cls-9" points="205.39 84.89 216.21 84.88 210.82 95.43 205.43 106 199.99 95.45 194.56 84.91 205.39 84.89"/><polygon id="_Path_68" data-name="&lt;Path&gt;" class="cls-10" points="194.6 106.01 183.77 106.03 189.17 95.47 194.56 84.91 199.99 95.45 205.43 106 194.6 106.01"/><polygon id="_Path_69" data-name="&lt;Path&gt;" class="cls-11" points="183.74 84.93 194.56 84.91 189.17 95.47 183.77 106.03 178.34 95.49 172.91 84.95 183.74 84.93"/><polygon id="_Path_70" data-name="&lt;Path&gt;" class="cls-10" points="172.95 106.05 162.12 106.07 167.52 95.51 172.91 84.95 178.34 95.49 183.77 106.03 172.95 106.05"/><polygon id="_Path_71" data-name="&lt;Path&gt;" class="cls-12" points="162.09 84.97 172.91 84.95 167.52 95.51 162.12 106.07 156.69 95.52 151.26 84.98 162.09 84.97"/><polygon id="_Path_72" data-name="&lt;Path&gt;" class="cls-11" points="151.3 106.09 140.48 106.1 145.87 95.54 151.26 84.98 156.69 95.52 162.12 106.07 151.3 106.09"/><polygon id="_Path_73" data-name="&lt;Path&gt;" class="cls-9" points="140.44 85 151.26 84.98 145.87 95.54 140.48 106.1 135.04 95.56 129.61 85.02 140.44 85"/><polygon id="_Path_74" data-name="&lt;Path&gt;" class="cls-10" points="129.65 106.12 118.83 106.14 124.22 95.58 129.61 85.02 135.04 95.56 140.48 106.1 129.65 106.12"/><polygon id="_Path_75" data-name="&lt;Path&gt;" class="cls-11" points="118.79 85.04 129.61 85.02 124.22 95.58 118.83 106.14 113.4 95.6 107.97 85.06 118.79 85.04"/><polygon id="_Path_76" data-name="&lt;Path&gt;" class="cls-9" points="108 106.16 97.17 106.18 102.57 95.61 107.97 85.06 113.39 95.6 118.83 106.14 108 106.16"/><polygon id="_Path_77" data-name="&lt;Path&gt;" class="cls-11" points="97.14 85.08 107.97 85.06 102.57 95.61 97.17 106.18 91.75 95.63 86.31 85.09 97.14 85.08"/><polygon id="_Path_78" data-name="&lt;Path&gt;" class="cls-10" points="86.35 106.19 75.53 106.21 80.92 95.65 86.31 85.09 91.75 95.63 97.17 106.18 86.35 106.19"/><polygon id="_Path_79" data-name="&lt;Path&gt;" class="cls-12" points="75.49 85.11 86.31 85.09 80.92 95.65 75.53 106.21 70.1 95.67 64.67 85.13 75.49 85.11"/><polygon id="_Path_80" data-name="&lt;Path&gt;" class="cls-11" points="64.7 106.23 53.88 106.25 59.27 95.69 64.67 85.13 70.1 95.67 75.53 106.21 64.7 106.23"/><polygon id="_Path_81" data-name="&lt;Path&gt;" class="cls-9" points="53.84 85.15 64.67 85.13 59.27 95.69 53.88 106.25 48.45 95.71 43.02 85.17 53.84 85.15"/><polygon id="_Path_82" data-name="&lt;Path&gt;" class="cls-10" points="43.05 106.27 32.23 106.29 37.62 95.72 43.02 85.17 48.45 95.71 53.88 106.25 43.05 106.27"/><polygon id="_Path_83" data-name="&lt;Path&gt;" class="cls-11" points="32.19 85.18 43.02 85.17 37.62 95.72 32.23 106.29 26.8 95.74 21.37 85.2 32.19 85.18"/><polygon id="_Path_84" data-name="&lt;Path&gt;" class="cls-10" points="21.4 106.3 10.58 106.32 15.97 95.76 21.37 85.2 26.8 95.74 32.23 106.29 21.4 106.3"/><polygon id="_Path_85" data-name="&lt;Path&gt;" class="cls-10" points="237.9 105.94 227.07 105.96 232.51 116.5 237.94 127.04 243.33 116.48 248.72 105.92 237.9 105.94"/><polygon id="_Path_86" data-name="&lt;Path&gt;" class="cls-12" points="227.11 127.06 237.94 127.04 232.5 116.5 227.07 105.96 221.68 116.52 216.28 127.08 227.11 127.06"/><polygon id="_Path_87" data-name="&lt;Path&gt;" class="cls-10" points="216.25 105.98 205.43 106 210.85 116.54 216.28 127.08 221.68 116.52 227.07 105.96 216.25 105.98"/><polygon id="_Path_88" data-name="&lt;Path&gt;" class="cls-12" points="205.46 127.09 216.28 127.08 210.85 116.54 205.43 106 200.03 116.56 194.63 127.11 205.46 127.09"/><polygon id="_Path_89" data-name="&lt;Path&gt;" class="cls-11" points="194.6 106.01 183.77 106.03 189.2 116.57 194.63 127.11 200.03 116.56 205.43 106 194.6 106.01"/><polygon id="_Path_90" data-name="&lt;Path&gt;" class="cls-12" points="183.81 127.13 194.63 127.11 189.2 116.57 183.77 106.03 178.38 116.59 172.98 127.15 183.81 127.13"/><polygon id="_Path_91" data-name="&lt;Path&gt;" class="cls-11" points="172.95 106.05 162.12 106.07 167.56 116.61 172.98 127.15 178.38 116.59 183.77 106.03 172.95 106.05"/><polygon id="_Path_92" data-name="&lt;Path&gt;" class="cls-10" points="162.16 127.17 172.98 127.15 167.56 116.61 162.12 106.07 156.73 116.63 151.34 127.18 162.16 127.17"/><polygon id="_Path_93" data-name="&lt;Path&gt;" class="cls-13" points="151.3 106.09 140.48 106.1 145.91 116.65 151.34 127.18 156.73 116.63 162.12 106.07 151.3 106.09"/><polygon id="_Path_94" data-name="&lt;Path&gt;" class="cls-12" points="140.51 127.2 151.34 127.18 145.91 116.65 140.48 106.1 135.08 116.67 129.68 127.22 140.51 127.2"/><polygon id="_Path_95" data-name="&lt;Path&gt;" class="cls-11" points="129.65 106.12 118.83 106.14 124.26 116.68 129.68 127.22 135.08 116.67 140.48 106.1 129.65 106.12"/><polygon id="_Path_96" data-name="&lt;Path&gt;" class="cls-10" points="118.86 127.24 129.68 127.22 124.26 116.68 118.83 106.14 113.43 116.7 108.04 127.26 118.86 127.24"/><polygon id="_Path_97" data-name="&lt;Path&gt;" class="cls-13" points="108 106.16 97.17 106.18 102.61 116.72 108.04 127.26 113.43 116.7 118.83 106.14 108 106.16"/><polygon id="_Path_98" data-name="&lt;Path&gt;" class="cls-12" points="97.21 127.28 108.04 127.26 102.61 116.72 97.17 106.18 91.78 116.74 86.38 127.29 97.21 127.28"/><polygon id="_Path_99" data-name="&lt;Path&gt;" class="cls-11" points="86.35 106.19 75.53 106.21 80.96 116.76 86.38 127.29 91.78 116.74 97.17 106.18 86.35 106.19"/><polygon id="_Path_100" data-name="&lt;Path&gt;" class="cls-10" points="75.56 127.31 86.38 127.29 80.96 116.76 75.53 106.21 70.13 116.77 64.74 127.33 75.56 127.31"/><polygon id="_Path_101" data-name="&lt;Path&gt;" class="cls-13" points="64.7 106.23 53.88 106.25 59.3 116.79 64.74 127.33 70.13 116.77 75.53 106.21 64.7 106.23"/><polygon id="_Path_102" data-name="&lt;Path&gt;" class="cls-12" points="53.91 127.35 64.74 127.33 59.3 116.79 53.88 106.25 48.48 116.81 43.09 127.37 53.91 127.35"/><polygon id="_Path_103" data-name="&lt;Path&gt;" class="cls-11" points="43.05 106.27 32.23 106.29 37.66 116.83 43.09 127.37 48.48 116.81 53.88 106.25 43.05 106.27"/><polygon id="_Path_104" data-name="&lt;Path&gt;" class="cls-10" points="32.26 127.38 43.09 127.37 37.65 116.83 32.23 106.29 26.83 116.85 21.44 127.4 32.26 127.38"/><polygon id="_Path_105" data-name="&lt;Path&gt;" class="cls-11" points="21.4 106.3 10.58 106.32 16.01 116.86 21.44 127.4 26.83 116.85 32.23 106.29 21.4 106.3"/><polygon id="_Path_106" data-name="&lt;Path&gt;" class="cls-13" points="237.97 148.15 227.15 148.16 232.54 137.6 237.94 127.04 243.37 137.58 248.8 148.13 237.97 148.15"/><polygon id="_Path_107" data-name="&lt;Path&gt;" class="cls-12" points="227.11 127.06 237.94 127.04 232.54 137.6 227.15 148.16 221.72 137.62 216.28 127.08 227.11 127.06"/><polygon id="_Path_108" data-name="&lt;Path&gt;" class="cls-13" points="216.32 148.18 205.5 148.2 210.89 137.64 216.28 127.08 221.72 137.62 227.15 148.16 216.32 148.18"/><polygon id="_Path_109" data-name="&lt;Path&gt;" class="cls-14" points="205.46 127.09 216.28 127.08 210.89 137.64 205.5 148.2 200.06 137.66 194.63 127.11 205.46 127.09"/><polygon id="_Path_110" data-name="&lt;Path&gt;" class="cls-13" points="194.67 148.22 183.84 148.24 189.24 137.67 194.63 127.11 200.06 137.66 205.5 148.2 194.67 148.22"/><polygon id="_Path_111" data-name="&lt;Path&gt;" class="cls-12" points="183.81 127.13 194.63 127.11 189.24 137.67 183.84 148.24 178.41 137.69 172.98 127.15 183.81 127.13"/><polygon id="_Path_112" data-name="&lt;Path&gt;" class="cls-13" points="173.02 148.25 162.19 148.27 167.59 137.71 172.98 127.15 178.41 137.69 183.84 148.24 173.02 148.25"/><polygon id="_Path_113" data-name="&lt;Path&gt;" class="cls-12" points="162.16 127.17 172.98 127.15 167.59 137.71 162.19 148.27 156.76 137.73 151.34 127.18 162.16 127.17"/><polygon id="_Path_114" data-name="&lt;Path&gt;" class="cls-13" points="151.37 148.29 140.55 148.31 145.94 137.75 151.34 127.18 156.76 137.73 162.19 148.27 151.37 148.29"/><polygon id="_Path_115" data-name="&lt;Path&gt;" class="cls-11" points="140.51 127.2 151.34 127.18 145.94 137.75 140.55 148.31 135.12 137.76 129.68 127.22 140.51 127.2"/><polygon id="_Path_116" data-name="&lt;Path&gt;" class="cls-12" points="129.72 148.33 118.9 148.34 124.29 137.78 129.68 127.22 135.12 137.76 140.55 148.31 129.72 148.33"/><polygon id="_Path_117" data-name="&lt;Path&gt;" class="cls-13" points="118.86 127.24 129.68 127.22 124.29 137.78 118.9 148.34 113.47 137.8 108.04 127.26 118.86 127.24"/><polygon id="_Path_118" data-name="&lt;Path&gt;" class="cls-12" points="108.07 148.36 97.25 148.38 102.64 137.82 108.04 127.26 113.47 137.8 118.9 148.34 108.07 148.36"/><polygon id="_Path_119" data-name="&lt;Path&gt;" class="cls-11" points="97.21 127.28 108.04 127.26 102.64 137.82 97.25 148.38 91.82 137.84 86.38 127.29 97.21 127.28"/><polygon id="_Path_120" data-name="&lt;Path&gt;" class="cls-13" points="86.42 148.4 75.6 148.42 80.99 137.85 86.38 127.29 91.82 137.84 97.25 148.38 86.42 148.4"/><polygon id="_Path_121" data-name="&lt;Path&gt;" class="cls-12" points="75.56 127.31 86.38 127.29 80.99 137.85 75.6 148.42 70.17 137.87 64.74 127.33 75.56 127.31"/><polygon id="_Path_122" data-name="&lt;Path&gt;" class="cls-13" points="64.77 148.44 53.95 148.45 59.34 137.89 64.74 127.33 70.17 137.87 75.6 148.42 64.77 148.44"/><polygon id="_Path_123" data-name="&lt;Path&gt;" class="cls-14" points="53.91 127.35 64.74 127.33 59.34 137.89 53.95 148.45 48.52 137.91 43.09 127.37 53.91 127.35"/><polygon id="_Path_124" data-name="&lt;Path&gt;" class="cls-13" points="43.12 148.47 32.3 148.49 37.69 137.93 43.09 127.37 48.52 137.91 53.95 148.45 43.12 148.47"/><polygon id="_Path_125" data-name="&lt;Path&gt;" class="cls-12" points="32.26 127.38 43.09 127.37 37.69 137.93 32.3 148.49 26.87 137.95 21.44 127.4 32.26 127.38"/><polygon id="_Path_126" data-name="&lt;Path&gt;" class="cls-12" points="21.47 148.51 10.65 148.53 16.04 137.96 21.44 127.4 26.87 137.95 32.3 148.49 21.47 148.51"/><polygon id="_Path_127" data-name="&lt;Path&gt;" class="cls-15" points="237.97 148.15 227.15 148.16 232.58 158.7 238.01 169.24 243.4 158.69 248.8 148.13 237.97 148.15"/><polygon id="_Path_128" data-name="&lt;Path&gt;" class="cls-13" points="227.18 169.26 238.01 169.24 232.57 158.7 227.15 148.16 221.75 158.72 216.36 169.28 227.18 169.26"/><polygon id="_Path_129" data-name="&lt;Path&gt;" class="cls-12" points="216.32 148.18 205.5 148.2 210.93 158.74 216.36 169.28 221.75 158.72 227.15 148.16 216.32 148.18"/><polygon id="_Path_130" data-name="&lt;Path&gt;" class="cls-13" points="205.53 169.3 216.36 169.28 210.93 158.74 205.5 148.2 200.1 158.76 194.7 169.32 205.53 169.3"/><polygon id="_Path_131" data-name="&lt;Path&gt;" class="cls-15" points="194.67 148.22 183.84 148.24 189.28 158.78 194.7 169.32 200.1 158.76 205.5 148.2 194.67 148.22"/><polygon id="_Path_132" data-name="&lt;Path&gt;" class="cls-16" points="183.88 169.34 194.7 169.32 189.28 158.78 183.84 148.24 178.45 158.79 173.06 169.35 183.88 169.34"/><polygon id="_Path_133" data-name="&lt;Path&gt;" class="cls-15" points="173.02 148.25 162.19 148.27 167.63 158.81 173.06 169.35 178.45 158.79 183.84 148.24 173.02 148.25"/><polygon id="_Path_134" data-name="&lt;Path&gt;" class="cls-12" points="162.23 169.37 173.06 169.35 167.63 158.81 162.19 148.27 156.8 158.83 151.41 169.39 162.23 169.37"/><polygon id="_Path_135" data-name="&lt;Path&gt;" class="cls-16" points="151.37 148.29 140.55 148.31 145.98 158.85 151.41 169.39 156.8 158.83 162.19 148.27 151.37 148.29"/><polygon id="_Path_136" data-name="&lt;Path&gt;" class="cls-15" points="140.58 169.41 151.41 169.39 145.97 158.85 140.55 148.31 135.15 158.87 129.75 169.43 140.58 169.41"/><polygon id="_Path_137" data-name="&lt;Path&gt;" class="cls-12" points="129.72 148.33 118.9 148.34 124.33 158.88 129.75 169.43 135.15 158.87 140.55 148.31 129.72 148.33"/><polygon id="_Path_138" data-name="&lt;Path&gt;" class="cls-16" points="118.93 169.44 129.75 169.43 124.33 158.88 118.9 148.34 113.5 158.9 108.11 169.46 118.93 169.44"/><polygon id="_Path_139" data-name="&lt;Path&gt;" class="cls-14" points="108.07 148.36 97.25 148.38 102.68 158.92 108.11 169.46 113.5 158.9 118.9 148.34 108.07 148.36"/><polygon id="_Path_140" data-name="&lt;Path&gt;" class="cls-15" points="97.28 169.48 108.11 169.46 102.68 158.92 97.25 148.38 91.85 158.94 86.45 169.5 97.28 169.48"/><polygon id="_Path_141" data-name="&lt;Path&gt;" class="cls-16" points="86.42 148.4 75.6 148.42 81.03 158.96 86.45 169.5 91.85 158.94 97.25 148.38 86.42 148.4"/><polygon id="_Path_142" data-name="&lt;Path&gt;" class="cls-15" points="75.63 169.52 86.45 169.5 81.03 158.96 75.6 148.42 70.2 158.98 64.81 169.53 75.63 169.52"/><polygon id="_Path_143" data-name="&lt;Path&gt;" class="cls-14" points="64.77 148.44 53.95 148.45 59.38 158.99 64.81 169.53 70.2 158.98 75.6 148.42 64.77 148.44"/><polygon id="_Path_144" data-name="&lt;Path&gt;" class="cls-16" points="53.98 169.55 64.81 169.53 59.38 158.99 53.95 148.45 48.55 159.01 43.16 169.57 53.98 169.55"/><polygon id="_Path_145" data-name="&lt;Path&gt;" class="cls-12" points="43.12 148.47 32.3 148.49 37.73 159.03 43.16 169.57 48.55 159.01 53.95 148.45 43.12 148.47"/><polygon id="_Path_146" data-name="&lt;Path&gt;" class="cls-15" points="32.33 169.59 43.16 169.57 37.72 159.03 32.3 148.49 26.9 159.05 21.51 169.61 32.33 169.59"/><polygon id="_Path_147" data-name="&lt;Path&gt;" class="cls-16" points="21.47 148.51 10.65 148.53 16.08 159.07 21.51 169.61 26.9 159.05 32.3 148.49 21.47 148.51"/><polygon id="_Path_148" data-name="&lt;Path&gt;" class="cls-16" points="238.04 190.35 227.22 190.37 232.61 179.8 238.01 169.24 243.44 179.78 248.87 190.33 238.04 190.35"/><polygon id="_Path_149" data-name="&lt;Path&gt;" class="cls-13" points="227.18 169.26 238.01 169.24 232.61 179.8 227.22 190.37 221.79 179.82 216.36 169.28 227.18 169.26"/><polygon id="_Path_150" data-name="&lt;Path&gt;" class="cls-17" points="216.39 190.38 205.57 190.4 210.96 179.84 216.36 169.28 221.79 179.82 227.22 190.37 216.39 190.38"/><polygon id="_Path_151" data-name="&lt;Path&gt;" class="cls-16" points="205.53 169.3 216.36 169.28 210.96 179.84 205.57 190.4 200.13 179.86 194.7 169.32 205.53 169.3"/><polygon id="_Path_152" data-name="&lt;Path&gt;" class="cls-17" points="194.74 190.42 183.91 190.44 189.31 179.88 194.7 169.32 200.13 179.86 205.57 190.4 194.74 190.42"/><polygon id="_Path_153" data-name="&lt;Path&gt;" class="cls-15" points="183.88 169.34 194.7 169.32 189.31 179.88 183.91 190.44 178.49 179.89 173.06 169.35 183.88 169.34"/><polygon id="_Path_154" data-name="&lt;Path&gt;" class="cls-13" points="173.09 190.46 162.27 190.47 167.66 179.91 173.06 169.35 178.49 179.89 183.91 190.44 173.09 190.46"/><polygon id="_Path_155" data-name="&lt;Path&gt;" class="cls-15" points="162.23 169.37 173.06 169.35 167.66 179.91 162.27 190.47 156.84 179.93 151.41 169.39 162.23 169.37"/><polygon id="_Path_156" data-name="&lt;Path&gt;" class="cls-16" points="151.44 190.49 140.62 190.51 146.01 179.95 151.41 169.39 156.84 179.93 162.27 190.47 151.44 190.49"/><polygon id="_Path_157" data-name="&lt;Path&gt;" class="cls-17" points="140.58 169.41 151.41 169.39 146.01 179.95 140.62 190.51 135.19 179.97 129.75 169.43 140.58 169.41"/><polygon id="_Path_158" data-name="&lt;Path&gt;" class="cls-13" points="129.79 190.53 118.97 190.55 124.36 179.99 129.75 169.43 135.19 179.97 140.62 190.51 129.79 190.53"/><polygon id="_Path_159" data-name="&lt;Path&gt;" class="cls-15" points="118.93 169.44 129.75 169.43 124.36 179.99 118.97 190.55 113.54 180 108.11 169.46 118.93 169.44"/><polygon id="_Path_160" data-name="&lt;Path&gt;" class="cls-16" points="108.14 190.56 97.32 190.58 102.71 180.02 108.11 169.46 113.54 180 118.97 190.55 108.14 190.56"/><polygon id="_Path_161" data-name="&lt;Path&gt;" class="cls-13" points="97.28 169.48 108.11 169.46 102.71 180.02 97.32 190.58 91.89 180.04 86.45 169.5 97.28 169.48"/><polygon id="_Path_162" data-name="&lt;Path&gt;" class="cls-17" points="86.49 190.6 75.67 190.62 81.06 180.06 86.45 169.5 91.89 180.04 97.32 190.58 86.49 190.6"/><polygon id="_Path_163" data-name="&lt;Path&gt;" class="cls-16" points="75.63 169.52 86.45 169.5 81.06 180.06 75.67 190.62 70.24 180.08 64.81 169.53 75.63 169.52"/><polygon id="_Path_164" data-name="&lt;Path&gt;" class="cls-15" points="64.84 190.64 54.02 190.66 59.41 180.09 64.81 169.53 70.24 180.08 75.67 190.62 64.84 190.64"/><polygon id="_Path_165" data-name="&lt;Path&gt;" class="cls-13" points="53.98 169.55 64.81 169.53 59.41 180.09 54.02 190.66 48.59 180.11 43.16 169.57 53.98 169.55"/><polygon id="_Path_166" data-name="&lt;Path&gt;" class="cls-17" points="43.19 190.67 32.37 190.69 37.76 180.13 43.16 169.57 48.59 180.11 54.02 190.66 43.19 190.67"/><polygon id="_Path_167" data-name="&lt;Path&gt;" class="cls-16" points="32.33 169.59 43.16 169.57 37.76 180.13 32.37 190.69 26.94 180.15 21.51 169.61 32.33 169.59"/><polygon id="_Path_168" data-name="&lt;Path&gt;" class="cls-15" points="21.54 190.71 10.72 190.73 16.11 180.17 21.51 169.61 26.94 180.15 32.37 190.69 21.54 190.71"/><polygon id="_Path_169" data-name="&lt;Path&gt;" class="cls-18" points="238.04 190.35 227.22 190.37 232.65 200.91 238.08 211.45 243.47 200.89 248.87 190.33 238.04 190.35"/><polygon id="_Path_170" data-name="&lt;Path&gt;" class="cls-17" points="227.25 211.46 238.08 211.45 232.65 200.91 227.22 190.37 221.82 200.92 216.43 211.48 227.25 211.46"/><polygon id="_Path_171" data-name="&lt;Path&gt;" class="cls-16" points="216.39 190.38 205.57 190.4 211 200.94 216.43 211.48 221.82 200.92 227.22 190.37 216.39 190.38"/><polygon id="_Path_172" data-name="&lt;Path&gt;" class="cls-16" points="205.6 211.5 216.43 211.48 211 200.94 205.57 190.4 200.17 200.96 194.77 211.52 205.6 211.5"/><polygon id="_Path_173" data-name="&lt;Path&gt;" class="cls-15" points="194.74 190.42 183.91 190.44 189.35 200.98 194.77 211.52 200.17 200.96 205.57 190.4 194.74 190.42"/><polygon id="_Path_174" data-name="&lt;Path&gt;" class="cls-17" points="183.95 211.54 194.77 211.52 189.35 200.98 183.91 190.44 178.52 201 173.13 211.56 183.95 211.54"/><polygon id="_Path_175" data-name="&lt;Path&gt;" class="cls-18" points="173.09 190.46 162.27 190.47 167.7 201.01 173.13 211.56 178.52 201 183.91 190.44 173.09 190.46"/><polygon id="_Path_176" data-name="&lt;Path&gt;" class="cls-17" points="162.3 211.57 173.13 211.56 167.7 201.01 162.27 190.47 156.87 201.03 151.48 211.59 162.3 211.57"/><polygon id="_Path_177" data-name="&lt;Path&gt;" class="cls-15" points="151.44 190.49 140.62 190.51 146.05 201.05 151.48 211.59 156.87 201.03 162.27 190.47 151.44 190.49"/><polygon id="_Path_178" data-name="&lt;Path&gt;" class="cls-18" points="140.65 211.61 151.48 211.59 146.05 201.05 140.62 190.51 135.22 201.07 129.83 211.63 140.65 211.61"/><polygon id="_Path_179" data-name="&lt;Path&gt;" class="cls-16" points="129.79 190.53 118.97 190.55 124.4 201.09 129.83 211.63 135.22 201.07 140.62 190.51 129.79 190.53"/><polygon id="_Path_180" data-name="&lt;Path&gt;" class="cls-19" points="119 211.65 129.83 211.63 124.4 201.09 118.97 190.55 113.57 201.11 108.18 211.66 119 211.65"/><polygon id="_Path_181" data-name="&lt;Path&gt;" class="cls-17" points="108.14 190.56 97.32 190.58 102.75 201.12 108.18 211.66 113.57 201.11 118.97 190.55 108.14 190.56"/><polygon id="_Path_182" data-name="&lt;Path&gt;" class="cls-18" points="97.35 211.68 108.18 211.66 102.75 201.12 97.32 190.58 91.92 201.14 86.53 211.7 97.35 211.68"/><polygon id="_Path_183" data-name="&lt;Path&gt;" class="cls-16" points="86.49 190.6 75.67 190.62 81.1 201.16 86.53 211.7 91.92 201.14 97.32 190.58 86.49 190.6"/><polygon id="_Path_184" data-name="&lt;Path&gt;" class="cls-15" points="75.7 211.72 86.53 211.7 81.1 201.16 75.67 190.62 70.27 201.18 64.88 211.74 75.7 211.72"/><polygon id="_Path_185" data-name="&lt;Path&gt;" class="cls-17" points="64.84 190.64 54.02 190.66 59.45 201.2 64.88 211.74 70.27 201.18 75.67 190.62 64.84 190.64"/><polygon id="_Path_186" data-name="&lt;Path&gt;" class="cls-18" points="54.05 211.75 64.88 211.74 59.45 201.2 54.02 190.66 48.62 201.22 43.23 211.77 54.05 211.75"/><polygon id="_Path_187" data-name="&lt;Path&gt;" class="cls-17" points="43.19 190.67 32.37 190.69 37.8 201.23 43.23 211.77 48.62 201.22 54.02 190.66 43.19 190.67"/><polygon id="_Path_188" data-name="&lt;Path&gt;" class="cls-20" points="32.4 211.79 43.23 211.77 37.8 201.23 32.37 190.69 26.97 201.25 21.58 211.81 32.4 211.79"/><polygon id="_Path_189" data-name="&lt;Path&gt;" class="cls-15" points="21.54 190.71 10.72 190.73 16.15 201.27 21.58 211.81 26.97 201.25 32.37 190.69 21.54 190.71"/><polygon id="_Path_190" data-name="&lt;Path&gt;" class="cls-17" points="238.11 232.55 227.29 232.57 232.69 222.01 238.08 211.45 243.51 221.99 248.94 232.53 238.11 232.55"/><polygon id="_Path_191" data-name="&lt;Path&gt;" class="cls-14" points="227.25 211.46 238.08 211.45 232.68 222.01 227.29 232.57 221.86 222.03 216.43 211.48 227.25 211.46"/><polygon id="_Path_192" data-name="&lt;Path&gt;" class="cls-18" points="216.46 232.59 205.64 232.6 211.03 222.05 216.43 211.48 221.86 222.03 227.29 232.57 216.46 232.59"/><polygon id="_Path_193" data-name="&lt;Path&gt;" class="cls-17" points="205.6 211.5 216.43 211.48 211.03 222.05 205.64 232.6 200.21 222.06 194.77 211.52 205.6 211.5"/><polygon id="_Path_194" data-name="&lt;Path&gt;" class="cls-18" points="194.81 232.62 183.99 232.64 189.38 222.08 194.77 211.52 200.21 222.06 205.64 232.6 194.81 232.62"/><polygon id="_Path_195" data-name="&lt;Path&gt;" class="cls-14" points="183.95 211.54 194.77 211.52 189.38 222.08 183.99 232.64 178.56 222.1 173.13 211.56 183.95 211.54"/><polygon id="_Path_196" data-name="&lt;Path&gt;" class="cls-18" points="173.16 232.66 162.34 232.68 167.73 222.12 173.13 211.56 178.56 222.1 183.99 232.64 173.16 232.66"/><polygon id="_Path_197" data-name="&lt;Path&gt;" class="cls-18" points="162.3 211.57 173.13 211.56 167.73 222.12 162.34 232.68 156.91 222.14 151.48 211.59 162.3 211.57"/><polygon id="_Path_198" data-name="&lt;Path&gt;" class="cls-16" points="151.51 232.7 140.69 232.71 146.08 222.16 151.48 211.59 156.91 222.14 162.34 232.68 151.51 232.7"/><polygon id="_Path_199" data-name="&lt;Path&gt;" class="cls-17" points="140.65 211.61 151.48 211.59 146.08 222.16 140.69 232.71 135.26 222.17 129.83 211.63 140.65 211.61"/><polygon id="_Path_200" data-name="&lt;Path&gt;" class="cls-19" points="129.86 232.73 119.04 232.75 124.43 222.19 129.83 211.63 135.26 222.17 140.69 232.71 129.86 232.73"/><polygon id="_Path_201" data-name="&lt;Path&gt;" class="cls-14" points="119 211.65 129.83 211.63 124.43 222.19 119.04 232.75 113.61 222.21 108.18 211.66 119 211.65"/><polygon id="_Path_202" data-name="&lt;Path&gt;" class="cls-17" points="108.21 232.77 97.39 232.79 102.78 222.23 108.18 211.66 113.61 222.21 119.04 232.75 108.21 232.77"/><polygon id="_Path_203" data-name="&lt;Path&gt;" class="cls-15" points="97.35 211.68 108.18 211.66 102.78 222.23 97.39 232.79 91.96 222.25 86.53 211.7 97.35 211.68"/><polygon id="_Path_204" data-name="&lt;Path&gt;" class="cls-19" points="86.56 232.81 75.74 232.82 81.13 222.26 86.53 211.7 91.96 222.25 97.39 232.79 86.56 232.81"/><polygon id="_Path_205" data-name="&lt;Path&gt;" class="cls-17" points="75.7 211.72 86.53 211.7 81.13 222.26 75.74 232.82 70.31 222.28 64.88 211.74 75.7 211.72"/><polygon id="_Path_206" data-name="&lt;Path&gt;" class="cls-18" points="64.91 232.84 54.09 232.86 59.48 222.3 64.88 211.74 70.31 222.28 75.74 232.82 64.91 232.84"/><polygon id="_Path_207" data-name="&lt;Path&gt;" class="cls-19" points="54.05 211.75 64.88 211.74 59.48 222.3 54.09 232.86 48.66 222.32 43.23 211.77 54.05 211.75"/><polygon id="_Path_208" data-name="&lt;Path&gt;" class="cls-20" points="43.26 232.88 32.44 232.9 37.84 222.34 43.23 211.77 48.66 222.32 54.09 232.86 43.26 232.88"/><polygon id="_Path_209" data-name="&lt;Path&gt;" class="cls-19" points="32.4 211.79 43.23 211.77 37.83 222.34 32.44 232.9 27.01 222.36 21.58 211.81 32.4 211.79"/><polygon id="_Path_210" data-name="&lt;Path&gt;" class="cls-20" points="21.61 232.91 10.79 232.93 16.18 222.37 21.58 211.81 27.01 222.36 32.44 232.9 21.61 232.91"/><polygon id="_Path_211" data-name="&lt;Path&gt;" class="cls-18" points="238.11 232.55 227.29 232.57 232.72 243.11 238.15 253.65 243.54 243.09 248.94 232.53 238.11 232.55"/><polygon id="_Path_212" data-name="&lt;Path&gt;" class="cls-20" points="227.32 253.67 238.15 253.65 232.72 243.11 227.29 232.57 221.89 243.13 216.5 253.69 227.32 253.67"/><polygon id="_Path_213" data-name="&lt;Path&gt;" class="cls-19" points="216.46 232.59 205.64 232.6 211.07 243.15 216.5 253.69 221.89 243.13 227.29 232.57 216.46 232.59"/><polygon id="_Path_214" data-name="&lt;Path&gt;" class="cls-17" points="205.67 253.71 216.5 253.69 211.07 243.15 205.64 232.6 200.24 243.17 194.84 253.72 205.67 253.71"/><polygon id="_Path_215" data-name="&lt;Path&gt;" class="cls-18" points="194.81 232.62 183.99 232.64 189.42 243.18 194.84 253.72 200.24 243.17 205.64 232.6 194.81 232.62"/><polygon id="_Path_216" data-name="&lt;Path&gt;" class="cls-20" points="184.02 253.74 194.84 253.72 189.42 243.18 183.99 232.64 178.59 243.2 173.2 253.76 184.02 253.74"/><polygon id="_Path_217" data-name="&lt;Path&gt;" class="cls-19" points="173.16 232.66 162.34 232.68 167.77 243.22 173.2 253.76 178.59 243.2 183.99 232.64 173.16 232.66"/><polygon id="_Path_218" data-name="&lt;Path&gt;" class="cls-18" points="162.37 253.78 173.2 253.76 167.77 243.22 162.34 232.68 156.94 243.24 151.55 253.8 162.37 253.78"/><polygon id="_Path_219" data-name="&lt;Path&gt;" class="cls-19" points="151.51 232.7 140.69 232.71 146.12 243.26 151.55 253.8 156.94 243.24 162.34 232.68 151.51 232.7"/><polygon id="_Path_220" data-name="&lt;Path&gt;" class="cls-20" points="140.72 253.82 151.55 253.8 146.12 243.26 140.69 232.71 135.29 243.28 129.9 253.83 140.72 253.82"/><polygon id="_Path_221" data-name="&lt;Path&gt;" class="cls-18" points="129.86 232.73 119.04 232.75 124.47 243.29 129.9 253.83 135.29 243.28 140.69 232.71 129.86 232.73"/><polygon id="_Path_222" data-name="&lt;Path&gt;" class="cls-20" points="119.07 253.85 129.9 253.83 124.47 243.29 119.04 232.75 113.64 243.31 108.25 253.87 119.07 253.85"/><polygon id="_Path_223" data-name="&lt;Path&gt;" class="cls-19" points="108.21 232.77 97.39 232.79 102.82 243.33 108.25 253.87 113.64 243.31 119.04 232.75 108.21 232.77"/><polygon id="_Path_224" data-name="&lt;Path&gt;" class="cls-18" points="97.42 253.89 108.25 253.87 102.82 243.33 97.39 232.79 92 243.35 86.6 253.91 97.42 253.89"/><polygon id="_Path_225" data-name="&lt;Path&gt;" class="cls-20" points="86.56 232.81 75.74 232.82 81.17 243.37 86.6 253.91 91.99 243.35 97.39 232.79 86.56 232.81"/><polygon id="_Path_226" data-name="&lt;Path&gt;" class="cls-18" points="75.77 253.93 86.6 253.91 81.17 243.37 75.74 232.82 70.34 243.38 64.95 253.94 75.77 253.93"/><polygon id="_Path_227" data-name="&lt;Path&gt;" class="cls-19" points="64.91 232.84 54.09 232.86 59.52 243.4 64.95 253.94 70.34 243.38 75.74 232.82 64.91 232.84"/><polygon id="_Path_228" data-name="&lt;Path&gt;" class="cls-20" points="54.12 253.96 64.95 253.94 59.52 243.4 54.09 232.86 48.69 243.42 43.3 253.98 54.12 253.96"/><polygon id="_Path_229" data-name="&lt;Path&gt;" class="cls-17" points="43.26 232.88 32.44 232.9 37.87 243.44 43.3 253.98 48.69 243.42 54.09 232.86 43.26 232.88"/><polygon id="_Path_230" data-name="&lt;Path&gt;" class="cls-18" points="32.47 254 43.3 253.98 37.87 243.44 32.44 232.9 27.05 243.46 21.65 254.01 32.47 254"/><polygon id="_Path_231" data-name="&lt;Path&gt;" class="cls-20" points="21.61 232.91 10.79 232.93 16.22 243.47 21.65 254.01 27.05 243.46 32.44 232.9 21.61 232.91"/><polygon id="_Path_232" data-name="&lt;Path&gt;" class="cls-20" points="238.18 274.75 227.36 274.77 232.76 264.21 238.15 253.65 243.58 264.19 249.01 274.73 238.18 274.75"/><polygon id="_Path_233" data-name="&lt;Path&gt;" class="cls-19" points="227.32 253.67 238.15 253.65 232.75 264.21 227.36 274.77 221.93 264.23 216.5 253.69 227.32 253.67"/><polygon id="_Path_234" data-name="&lt;Path&gt;" class="cls-18" points="216.53 274.79 205.71 274.81 211.1 264.25 216.5 253.69 221.93 264.23 227.36 274.77 216.53 274.79"/><polygon id="_Path_235" data-name="&lt;Path&gt;" class="cls-20" points="205.67 253.71 216.5 253.69 211.1 264.25 205.71 274.81 200.28 264.26 194.84 253.72 205.67 253.71"/><polygon id="_Path_236" data-name="&lt;Path&gt;" class="cls-18" points="194.88 274.82 184.06 274.84 189.45 264.28 194.84 253.72 200.28 264.26 205.71 274.81 194.88 274.82"/><polygon id="_Path_237" data-name="&lt;Path&gt;" class="cls-19" points="184.02 253.74 194.84 253.72 189.45 264.28 184.06 274.84 178.63 264.3 173.2 253.76 184.02 253.74"/><polygon id="_Path_238" data-name="&lt;Path&gt;" class="cls-18" points="173.23 274.86 162.41 274.88 167.8 264.32 173.2 253.76 178.63 264.3 184.06 274.84 173.23 274.86"/><polygon id="_Path_239" data-name="&lt;Path&gt;" class="cls-20" points="162.37 253.78 173.2 253.76 167.8 264.32 162.41 274.88 156.98 264.34 151.55 253.8 162.37 253.78"/><polygon id="_Path_240" data-name="&lt;Path&gt;" class="cls-19" points="151.58 274.9 140.76 274.92 146.15 264.36 151.55 253.8 156.98 264.34 162.41 274.88 151.58 274.9"/><polygon id="_Path_241" data-name="&lt;Path&gt;" class="cls-18" points="140.72 253.82 151.55 253.8 146.15 264.36 140.76 274.92 135.33 264.37 129.9 253.83 140.72 253.82"/><polygon id="_Path_242" data-name="&lt;Path&gt;" class="cls-18" points="129.93 274.93 119.11 274.95 124.5 264.39 129.9 253.83 135.33 264.37 140.76 274.92 129.93 274.93"/><polygon id="_Path_243" data-name="&lt;Path&gt;" class="cls-20" points="119.07 253.85 129.9 253.83 124.5 264.39 119.11 274.95 113.68 264.41 108.25 253.87 119.07 253.85"/><polygon id="_Path_244" data-name="&lt;Path&gt;" class="cls-18" points="108.28 274.97 97.46 274.99 102.86 264.43 108.25 253.87 113.68 264.41 119.11 274.95 108.28 274.97"/><polygon id="_Path_245" data-name="&lt;Path&gt;" class="cls-20" points="97.42 253.89 108.25 253.87 102.86 264.43 97.46 274.99 92.03 264.44 86.6 253.91 97.42 253.89"/><polygon id="_Path_246" data-name="&lt;Path&gt;" class="cls-19" points="86.63 275.01 75.81 275.02 81.2 264.46 86.6 253.91 92.03 264.44 97.46 274.99 86.63 275.01"/><polygon id="_Path_247" data-name="&lt;Path&gt;" class="cls-20" points="75.77 253.93 86.6 253.91 81.2 264.46 75.81 275.02 70.38 264.48 64.95 253.94 75.77 253.93"/><polygon id="_Path_248" data-name="&lt;Path&gt;" class="cls-17" points="64.98 275.04 54.16 275.06 59.55 264.5 64.95 253.94 70.38 264.48 75.81 275.02 64.98 275.04"/><polygon id="_Path_249" data-name="&lt;Path&gt;" class="cls-18" points="54.12 253.96 64.95 253.94 59.55 264.5 54.16 275.06 48.73 264.52 43.3 253.98 54.12 253.96"/><polygon id="_Path_250" data-name="&lt;Path&gt;" class="cls-20" points="10.82 254.03 21.65 254.01 16.22 243.47 10.79 232.93 5.4 243.49 0 254.05 10.82 254.03"/><polygon id="_Path_251" data-name="&lt;Path&gt;" class="cls-18" points="10.82 254.03 21.65 254.01 16.25 264.57 10.86 275.13 5.43 264.59 0 254.05 10.82 254.03"/><polygon id="_Path_252" data-name="&lt;Path&gt;" class="cls-19" points="43.33 275.08 32.51 275.1 37.91 264.54 43.3 253.98 48.73 264.52 54.16 275.06 43.33 275.08"/><polygon id="_Path_253" data-name="&lt;Path&gt;" class="cls-20" points="32.47 254 43.3 253.98 37.9 264.54 32.51 275.1 27.08 264.55 21.65 254.01 32.47 254"/><polygon id="_Path_254" data-name="&lt;Path&gt;" class="cls-18" points="21.69 275.12 10.86 275.13 16.26 264.57 21.65 254.01 27.08 264.55 32.51 275.1 21.69 275.12"/></g><g id="_Group_6" data-name="&lt;Group&gt;"><polygon id="_Path_255" data-name="&lt;Path&gt;" class="cls-5" points="21.26 21.9 32.08 21.88 26.65 11.34 21.22 0.8 15.83 11.36 10.43 21.92 21.26 21.9"/><polygon id="_Path_256" data-name="&lt;Path&gt;" class="cls-6" points="32.05 0.78 21.22 0.8 26.65 11.34 32.08 21.88 37.48 11.32 42.87 0.76 32.05 0.78"/><polygon id="_Path_257" data-name="&lt;Path&gt;" class="cls-5" points="42.91 21.86 53.73 21.84 48.3 11.3 42.87 0.76 37.48 11.32 32.08 21.88 42.91 21.86"/><polygon id="_Path_258" data-name="&lt;Path&gt;" class="cls-6" points="53.7 0.74 42.87 0.76 48.3 11.3 53.73 21.84 59.13 11.29 64.52 0.73 53.7 0.74"/><polygon id="_Path_259" data-name="&lt;Path&gt;" class="cls-7" points="64.56 21.82 75.38 21.81 69.95 11.27 64.52 0.73 59.13 11.29 53.73 21.84 64.56 21.82"/><polygon id="_Path_260" data-name="&lt;Path&gt;" class="cls-6" points="75.35 0.71 64.52 0.73 69.95 11.27 75.38 21.81 80.78 11.25 86.17 0.69 75.35 0.71"/><polygon id="_Path_261" data-name="&lt;Path&gt;" class="cls-5" points="86.21 21.79 97.03 21.77 91.6 11.23 86.17 0.69 80.78 11.25 75.38 21.81 86.21 21.79"/><polygon id="_Path_262" data-name="&lt;Path&gt;" class="cls-7" points="97 0.67 86.17 0.69 91.6 11.23 97.03 21.77 102.43 11.21 107.82 0.65 97 0.67"/><polygon id="_Path_263" data-name="&lt;Path&gt;" class="cls-5" points="107.86 21.75 118.68 21.73 113.25 11.2 107.82 0.65 102.43 11.21 97.03 21.77 107.86 21.75"/><polygon id="_Path_264" data-name="&lt;Path&gt;" class="cls-6" points="118.65 0.64 107.82 0.65 113.25 11.2 118.68 21.73 124.08 11.18 129.47 0.62 118.65 0.64"/><polygon id="_Path_265" data-name="&lt;Path&gt;" class="cls-7" points="129.51 21.72 140.33 21.7 134.9 11.16 129.47 0.62 124.08 11.18 118.68 21.73 129.51 21.72"/><polygon id="_Path_266" data-name="&lt;Path&gt;" class="cls-5" points="140.3 0.6 129.47 0.62 134.9 11.16 140.33 21.7 145.73 11.14 151.12 0.58 140.3 0.6"/><polygon id="_Path_267" data-name="&lt;Path&gt;" class="cls-6" points="151.15 21.68 161.98 21.66 156.55 11.12 151.12 0.58 145.73 11.14 140.33 21.7 151.15 21.68"/><polygon id="_Path_268" data-name="&lt;Path&gt;" class="cls-7" points="161.95 0.56 151.12 0.58 156.55 11.12 161.98 21.66 167.38 11.1 172.77 0.55 161.95 0.56"/><polygon id="_Path_269" data-name="&lt;Path&gt;" class="cls-5" points="172.81 21.64 183.63 21.63 178.2 11.09 172.77 0.55 167.38 11.1 161.98 21.66 172.81 21.64"/><polygon id="_Path_270" data-name="&lt;Path&gt;" class="cls-6" points="183.59 0.53 172.77 0.55 178.2 11.09 183.63 21.63 189.03 11.07 194.42 0.51 183.59 0.53"/><polygon id="_Path_271" data-name="&lt;Path&gt;" class="cls-5" points="194.46 21.61 205.28 21.59 199.85 11.05 194.42 0.51 189.03 11.07 183.63 21.63 194.46 21.61"/><polygon id="_Path_272" data-name="&lt;Path&gt;" class="cls-6" points="205.24 0.49 194.42 0.51 199.85 11.05 205.28 21.59 210.68 11.03 216.07 0.47 205.24 0.49"/><polygon id="_Path_273" data-name="&lt;Path&gt;" class="cls-7" points="216.11 21.57 226.93 21.55 221.5 11.01 216.07 0.47 210.68 11.03 205.28 21.59 216.11 21.57"/><polygon id="_Path_274" data-name="&lt;Path&gt;" class="cls-5" points="226.9 0.45 216.07 0.47 221.5 11.01 226.93 21.55 232.32 10.99 237.72 0.44 226.9 0.45"/><polygon id="_Path_275" data-name="&lt;Path&gt;" class="cls-6" points="237.76 21.53 248.58 21.52 243.15 10.98 237.72 0.44 232.32 10.99 226.93 21.55 237.76 21.53"/><polygon id="_Path_276" data-name="&lt;Path&gt;" class="cls-5" points="259.41 21.5 248.59 21.52 254.02 32.06 259.45 42.6 264.84 32.04 270.24 21.48 259.41 21.5"/><polygon id="_Path_277" data-name="&lt;Path&gt;" class="cls-6" points="248.62 42.62 259.45 42.6 254.01 32.06 248.59 21.52 243.19 32.08 237.8 42.63 248.62 42.62"/><polygon id="_Path_278" data-name="&lt;Path&gt;" class="cls-7" points="259.48 63.7 248.66 63.72 254.05 53.16 259.45 42.6 264.88 53.14 270.31 63.68 259.48 63.7"/><polygon id="_Path_279" data-name="&lt;Path&gt;" class="cls-8" points="248.62 42.62 259.45 42.6 254.05 53.16 248.66 63.72 243.23 53.18 237.8 42.63 248.62 42.62"/><polygon id="_Path_280" data-name="&lt;Path&gt;" class="cls-9" points="259.48 63.7 248.66 63.72 254.09 74.26 259.52 84.8 264.91 74.24 270.31 63.68 259.48 63.7"/><polygon id="_Path_281" data-name="&lt;Path&gt;" class="cls-8" points="248.69 84.82 259.52 84.8 254.09 74.26 248.66 63.72 243.26 74.28 237.87 84.84 248.69 84.82"/><polygon id="_Path_282" data-name="&lt;Path&gt;" class="cls-11" points="259.55 105.91 248.73 105.92 254.13 95.36 259.52 84.8 264.95 95.34 270.38 105.89 259.55 105.91"/><polygon id="_Path_283" data-name="&lt;Path&gt;" class="cls-10" points="248.69 84.82 259.52 84.8 254.12 95.36 248.73 105.92 243.3 95.38 237.87 84.84 248.69 84.82"/><polygon id="_Path_284" data-name="&lt;Path&gt;" class="cls-10" points="259.55 105.91 248.73 105.92 254.16 116.47 259.59 127 264.98 116.45 270.38 105.89 259.55 105.91"/><polygon id="_Path_285" data-name="&lt;Path&gt;" class="cls-12" points="248.76 127.02 259.59 127 254.16 116.47 248.73 105.92 243.33 116.48 237.94 127.04 248.76 127.02"/><polygon id="_Path_286" data-name="&lt;Path&gt;" class="cls-13" points="259.62 148.11 248.8 148.13 254.2 137.56 259.59 127 265.02 137.55 270.45 148.09 259.62 148.11"/><polygon id="_Path_287" data-name="&lt;Path&gt;" class="cls-12" points="248.76 127.02 259.59 127 254.19 137.56 248.8 148.13 243.37 137.58 237.94 127.04 248.76 127.02"/><polygon id="_Path_288" data-name="&lt;Path&gt;" class="cls-15" points="259.62 148.11 248.8 148.13 254.23 158.67 259.66 169.21 265.06 158.65 270.45 148.09 259.62 148.11"/><polygon id="_Path_289" data-name="&lt;Path&gt;" class="cls-13" points="248.83 169.23 259.66 169.21 254.23 158.67 248.8 148.13 243.4 158.69 238.01 169.24 248.83 169.23"/><polygon id="_Path_290" data-name="&lt;Path&gt;" class="cls-16" points="259.69 190.31 248.87 190.33 254.27 179.77 259.66 169.21 265.09 179.75 270.52 190.29 259.69 190.31"/><polygon id="_Path_291" data-name="&lt;Path&gt;" class="cls-13" points="248.83 169.23 259.66 169.21 254.26 179.77 248.87 190.33 243.44 179.78 238.01 169.24 248.83 169.23"/><polygon id="_Path_292" data-name="&lt;Path&gt;" class="cls-18" points="259.69 190.31 248.87 190.33 254.3 200.87 259.73 211.41 265.13 200.85 270.52 190.29 259.69 190.31"/><polygon id="_Path_293" data-name="&lt;Path&gt;" class="cls-17" points="248.9 211.43 259.73 211.41 254.3 200.87 248.87 190.33 243.47 200.89 238.08 211.45 248.9 211.43"/><polygon id="_Path_294" data-name="&lt;Path&gt;" class="cls-17" points="259.76 232.51 248.94 232.53 254.34 221.97 259.73 211.41 265.16 221.96 270.59 232.5 259.76 232.51"/><polygon id="_Path_295" data-name="&lt;Path&gt;" class="cls-14" points="248.9 211.43 259.73 211.41 254.33 221.97 248.94 232.53 243.51 221.99 238.08 211.45 248.9 211.43"/><polygon id="_Path_296" data-name="&lt;Path&gt;" class="cls-18" points="259.76 232.51 248.94 232.53 254.37 243.07 259.8 253.62 265.2 243.06 270.59 232.5 259.76 232.51"/><polygon id="_Path_297" data-name="&lt;Path&gt;" class="cls-20" points="248.97 253.63 259.8 253.62 254.37 243.07 248.94 232.53 243.54 243.09 238.15 253.65 248.97 253.63"/><polygon id="_Path_298" data-name="&lt;Path&gt;" class="cls-20" points="259.84 274.72 249.01 274.73 254.41 264.17 259.8 253.62 265.23 264.15 270.66 274.7 259.84 274.72"/><polygon id="_Path_299" data-name="&lt;Path&gt;" class="cls-19" points="248.97 253.63 259.8 253.62 254.41 264.17 249.01 274.73 243.58 264.19 238.15 253.65 248.97 253.63"/><polygon id="_Path_300" data-name="&lt;Path&gt;" class="cls-5" points="248.55 0.42 237.72 0.44 243.15 10.98 248.58 21.52 253.98 10.96 259.37 0.4 248.55 0.42"/><polygon id="_Path_301" data-name="&lt;Path&gt;" class="cls-6" points="259.41 21.5 270.23 21.48 264.8 10.94 259.37 0.4 253.98 10.96 248.58 21.52 259.41 21.5"/></g></g></g></g><g id="_Group_7" data-name="&lt;Group&gt;" class="cls-4"><g id="_Group_8" data-name="&lt;Group&gt;"><g id="_Group_9" data-name="&lt;Group&gt;"><g id="_Group_10" data-name="&lt;Group&gt;"><polygon id="_Path_302" data-name="&lt;Path&gt;" class="cls-5" points="475.96 21.14 465.14 21.15 470.57 31.69 476 42.23 481.39 31.68 486.79 21.12 475.96 21.14"/><polygon id="_Path_303" data-name="&lt;Path&gt;" class="cls-6" points="465.17 42.25 476 42.23 470.57 31.69 465.14 21.15 459.74 31.71 454.35 42.27 465.17 42.25"/><polygon id="_Path_304" data-name="&lt;Path&gt;" class="cls-5" points="454.31 21.17 443.49 21.19 448.92 31.73 454.35 42.27 459.74 31.71 465.14 21.15 454.31 21.17"/><polygon id="_Path_305" data-name="&lt;Path&gt;" class="cls-6" points="443.52 42.29 454.35 42.27 448.92 31.73 443.49 21.19 438.09 31.75 432.7 42.31 443.52 42.29"/><polygon id="_Path_306" data-name="&lt;Path&gt;" class="cls-7" points="432.66 21.21 421.84 21.23 427.27 31.77 432.7 42.31 438.09 31.75 443.49 21.19 432.66 21.21"/><polygon id="_Path_307" data-name="&lt;Path&gt;" class="cls-6" points="421.87 42.33 432.7 42.31 427.27 31.77 421.84 21.23 416.44 31.79 411.05 42.34 421.87 42.33"/><polygon id="_Path_308" data-name="&lt;Path&gt;" class="cls-5" points="411.01 21.24 400.19 21.26 405.62 31.8 411.05 42.34 416.44 31.79 421.84 21.23 411.01 21.24"/><polygon id="_Path_309" data-name="&lt;Path&gt;" class="cls-7" points="400.22 42.36 411.05 42.34 405.62 31.8 400.19 21.26 394.79 31.82 389.4 42.38 400.22 42.36"/><polygon id="_Path_310" data-name="&lt;Path&gt;" class="cls-5" points="389.36 21.28 378.54 21.3 383.97 31.84 389.4 42.38 394.79 31.82 400.19 21.26 389.36 21.28"/><polygon id="_Path_311" data-name="&lt;Path&gt;" class="cls-6" points="378.57 42.4 389.4 42.38 383.97 31.84 378.54 21.3 373.14 31.86 367.75 42.42 378.57 42.4"/><polygon id="_Path_312" data-name="&lt;Path&gt;" class="cls-7" points="367.71 21.32 356.89 21.34 362.32 31.88 367.75 42.42 373.14 31.86 378.54 21.3 367.71 21.32"/><polygon id="_Path_313" data-name="&lt;Path&gt;" class="cls-5" points="356.92 42.44 367.75 42.42 362.32 31.88 356.89 21.34 351.5 31.89 346.1 42.45 356.92 42.44"/><polygon id="_Path_314" data-name="&lt;Path&gt;" class="cls-6" points="346.06 21.35 335.24 21.37 340.67 31.91 346.1 42.45 351.49 31.89 356.89 21.34 346.06 21.35"/><polygon id="_Path_315" data-name="&lt;Path&gt;" class="cls-7" points="335.27 42.47 346.1 42.45 340.67 31.91 335.24 21.37 329.85 31.93 324.45 42.49 335.27 42.47"/><polygon id="_Path_316" data-name="&lt;Path&gt;" class="cls-5" points="324.41 21.39 313.59 21.41 319.02 31.95 324.45 42.49 329.84 31.93 335.24 21.37 324.41 21.39"/><polygon id="_Path_317" data-name="&lt;Path&gt;" class="cls-6" points="313.63 42.51 324.45 42.49 319.02 31.95 313.59 21.41 308.19 31.97 302.8 42.53 313.63 42.51"/><polygon id="_Path_318" data-name="&lt;Path&gt;" class="cls-5" points="302.76 21.43 291.94 21.44 297.37 31.98 302.8 42.53 308.19 31.97 313.59 21.41 302.76 21.43"/><polygon id="_Path_319" data-name="&lt;Path&gt;" class="cls-6" points="291.97 42.54 302.8 42.53 297.37 31.98 291.94 21.44 286.55 32 281.15 42.56 291.97 42.54"/><polygon id="_Path_320" data-name="&lt;Path&gt;" class="cls-7" points="281.11 21.46 270.29 21.48 275.72 32.02 281.15 42.56 286.55 32 291.94 21.44 281.11 21.46"/><polygon id="_Path_321" data-name="&lt;Path&gt;" class="cls-5" points="270.32 42.58 281.15 42.56 275.72 32.02 270.29 21.48 264.9 32.04 259.5 42.6 270.32 42.58"/><polygon id="_Path_322" data-name="&lt;Path&gt;" class="cls-7" points="476.03 63.34 465.21 63.35 470.61 52.8 476 42.23 481.43 52.78 486.86 63.32 476.03 63.34"/><polygon id="_Path_323" data-name="&lt;Path&gt;" class="cls-8" points="465.17 42.25 476 42.23 470.6 52.8 465.21 63.35 459.78 52.81 454.35 42.27 465.17 42.25"/><polygon id="_Path_324" data-name="&lt;Path&gt;" class="cls-7" points="454.38 63.37 443.56 63.39 448.95 52.83 454.35 42.27 459.78 52.81 465.21 63.35 454.38 63.37"/><polygon id="_Path_325" data-name="&lt;Path&gt;" class="cls-5" points="443.52 42.29 454.35 42.27 448.95 52.83 443.56 63.39 438.13 52.85 432.7 42.31 443.52 42.29"/><polygon id="_Path_326" data-name="&lt;Path&gt;" class="cls-8" points="432.73 63.41 421.91 63.43 427.3 52.87 432.7 42.31 438.13 52.85 443.56 63.39 432.73 63.41"/><polygon id="_Path_327" data-name="&lt;Path&gt;" class="cls-5" points="421.87 42.33 432.7 42.31 427.3 52.87 421.91 63.43 416.48 52.89 411.05 42.34 421.87 42.33"/><polygon id="_Path_328" data-name="&lt;Path&gt;" class="cls-7" points="411.08 63.45 400.26 63.46 405.65 52.9 411.05 42.34 416.48 52.89 421.91 63.43 411.08 63.45"/><polygon id="_Path_329" data-name="&lt;Path&gt;" class="cls-6" points="400.22 42.36 411.05 42.34 405.65 52.9 400.26 63.46 394.83 52.92 389.4 42.38 400.22 42.36"/><polygon id="_Path_330" data-name="&lt;Path&gt;" class="cls-7" points="389.43 63.48 378.61 63.5 384 52.94 389.4 42.38 394.83 52.92 400.26 63.46 389.43 63.48"/><polygon id="_Path_331" data-name="&lt;Path&gt;" class="cls-5" points="378.57 42.4 389.4 42.38 384 52.94 378.61 63.5 373.18 52.96 367.75 42.42 378.57 42.4"/><polygon id="_Path_332" data-name="&lt;Path&gt;" class="cls-8" points="367.78 63.52 356.96 63.54 362.35 52.98 367.75 42.42 373.18 52.96 378.61 63.5 367.78 63.52"/><polygon id="_Path_333" data-name="&lt;Path&gt;" class="cls-7" points="356.92 42.44 367.75 42.42 362.35 52.98 356.96 63.54 351.53 52.99 346.1 42.45 356.92 42.44"/><polygon id="_Path_334" data-name="&lt;Path&gt;" class="cls-8" points="346.14 63.55 335.31 63.57 340.71 53.01 346.1 42.45 351.53 52.99 356.96 63.54 346.14 63.55"/><polygon id="_Path_335" data-name="&lt;Path&gt;" class="cls-5" points="335.27 42.47 346.1 42.45 340.71 53.01 335.31 63.57 329.88 53.03 324.45 42.49 335.27 42.47"/><polygon id="_Path_336" data-name="&lt;Path&gt;" class="cls-7" points="324.48 63.59 313.66 63.61 319.05 53.05 324.45 42.49 329.88 53.03 335.31 63.57 324.48 63.59"/><polygon id="_Path_337" data-name="&lt;Path&gt;" class="cls-8" points="313.63 42.51 324.45 42.49 319.05 53.05 313.66 63.61 308.23 53.07 302.8 42.53 313.63 42.51"/><polygon id="_Path_338" data-name="&lt;Path&gt;" class="cls-7" points="302.83 63.63 292.01 63.65 297.4 53.09 302.8 42.53 308.23 53.07 313.66 63.61 302.83 63.63"/><polygon id="_Path_339" data-name="&lt;Path&gt;" class="cls-5" points="291.97 42.54 302.8 42.53 297.4 53.09 292.01 63.65 286.58 53.1 281.15 42.56 291.97 42.54"/><polygon id="_Path_340" data-name="&lt;Path&gt;" class="cls-8" points="281.18 63.66 270.36 63.68 275.76 53.12 281.15 42.56 286.58 53.1 292.01 63.65 281.18 63.66"/><polygon id="_Path_341" data-name="&lt;Path&gt;" class="cls-6" points="270.32 42.58 281.15 42.56 275.75 53.12 270.36 63.68 264.93 53.14 259.5 42.6 270.32 42.58"/><polygon id="_Path_342" data-name="&lt;Path&gt;" class="cls-9" points="476.03 63.34 465.21 63.35 470.64 73.9 476.07 84.44 481.47 73.88 486.86 63.32 476.03 63.34"/><polygon id="_Path_343" data-name="&lt;Path&gt;" class="cls-8" points="465.24 84.46 476.07 84.44 470.64 73.9 465.21 63.35 459.81 73.92 454.42 84.48 465.24 84.46"/><polygon id="_Path_344" data-name="&lt;Path&gt;" class="cls-9" points="454.38 63.37 443.56 63.39 448.99 73.93 454.42 84.48 459.81 73.92 465.21 63.35 454.38 63.37"/><polygon id="_Path_345" data-name="&lt;Path&gt;" class="cls-6" points="443.6 84.49 454.42 84.48 448.99 73.93 443.56 63.39 438.16 73.95 432.77 84.51 443.6 84.49"/><polygon id="_Path_346" data-name="&lt;Path&gt;" class="cls-7" points="432.73 63.41 421.91 63.43 427.34 73.97 432.77 84.51 438.16 73.95 443.56 63.39 432.73 63.41"/><polygon id="_Path_347" data-name="&lt;Path&gt;" class="cls-9" points="421.94 84.53 432.77 84.51 427.34 73.97 421.91 63.43 416.51 73.99 411.12 84.55 421.94 84.53"/><polygon id="_Path_348" data-name="&lt;Path&gt;" class="cls-6" points="411.08 63.45 400.26 63.46 405.69 74.01 411.12 84.55 416.51 73.99 421.91 63.43 411.08 63.45"/><polygon id="_Path_349" data-name="&lt;Path&gt;" class="cls-9" points="400.29 84.57 411.12 84.55 405.69 74.01 400.26 63.46 394.86 74.02 389.47 84.58 400.29 84.57"/><polygon id="_Path_350" data-name="&lt;Path&gt;" class="cls-10" points="389.43 63.48 378.61 63.5 384.04 74.04 389.47 84.58 394.86 74.02 400.26 63.46 389.43 63.48"/><polygon id="_Path_351" data-name="&lt;Path&gt;" class="cls-6" points="378.64 84.6 389.47 84.58 384.04 74.04 378.61 63.5 373.21 74.06 367.82 84.62 378.64 84.6"/><polygon id="_Path_352" data-name="&lt;Path&gt;" class="cls-7" points="367.78 63.52 356.96 63.54 362.39 74.08 367.82 84.62 373.21 74.06 378.61 63.5 367.78 63.52"/><polygon id="_Path_353" data-name="&lt;Path&gt;" class="cls-9" points="357 84.64 367.82 84.62 362.39 74.08 356.96 63.54 351.57 74.1 346.17 84.66 357 84.64"/><polygon id="_Path_354" data-name="&lt;Path&gt;" class="cls-7" points="346.14 63.55 335.31 63.57 340.74 74.11 346.17 84.66 351.56 74.1 356.96 63.54 346.14 63.55"/><polygon id="_Path_355" data-name="&lt;Path&gt;" class="cls-9" points="335.34 84.68 346.17 84.66 340.74 74.11 335.31 63.57 329.92 74.13 324.52 84.69 335.34 84.68"/><polygon id="_Path_356" data-name="&lt;Path&gt;" class="cls-6" points="324.48 63.59 313.66 63.61 319.09 74.15 324.52 84.69 329.91 74.13 335.31 63.57 324.48 63.59"/><polygon id="_Path_357" data-name="&lt;Path&gt;" class="cls-9" points="313.69 84.71 324.52 84.69 319.09 74.15 313.66 63.61 308.26 74.17 302.87 84.73 313.69 84.71"/><polygon id="_Path_358" data-name="&lt;Path&gt;" class="cls-6" points="302.83 63.63 292.01 63.65 297.44 74.19 302.87 84.73 308.26 74.17 313.66 63.61 302.83 63.63"/><polygon id="_Path_359" data-name="&lt;Path&gt;" class="cls-10" points="292.05 84.75 302.87 84.73 297.44 74.19 292.01 63.65 286.62 74.2 281.22 84.77 292.05 84.75"/><polygon id="_Path_360" data-name="&lt;Path&gt;" class="cls-7" points="281.18 63.66 270.36 63.68 275.79 74.22 281.22 84.77 286.62 74.2 292.01 63.65 281.18 63.66"/><polygon id="_Path_361" data-name="&lt;Path&gt;" class="cls-9" points="270.39 84.78 281.22 84.77 275.79 74.22 270.36 63.68 264.97 74.24 259.57 84.8 270.39 84.78"/><polygon id="_Path_362" data-name="&lt;Path&gt;" class="cls-11" points="476.11 105.54 465.28 105.56 470.68 95 476.07 84.44 481.5 94.98 486.93 105.52 476.11 105.54"/><polygon id="_Path_363" data-name="&lt;Path&gt;" class="cls-10" points="465.24 84.46 476.07 84.44 470.67 95 465.28 105.56 459.85 95.02 454.42 84.48 465.24 84.46"/><polygon id="_Path_364" data-name="&lt;Path&gt;" class="cls-11" points="454.45 105.58 443.63 105.6 449.02 95.03 454.42 84.48 459.85 95.02 465.28 105.56 454.45 105.58"/><polygon id="_Path_365" data-name="&lt;Path&gt;" class="cls-9" points="443.6 84.49 454.42 84.48 449.02 95.03 443.63 105.6 438.2 95.05 432.77 84.51 443.6 84.49"/><polygon id="_Path_366" data-name="&lt;Path&gt;" class="cls-10" points="432.8 105.61 421.98 105.63 427.37 95.07 432.77 84.51 438.2 95.05 443.63 105.6 432.8 105.61"/><polygon id="_Path_367" data-name="&lt;Path&gt;" class="cls-11" points="421.94 84.53 432.77 84.51 427.37 95.07 421.98 105.63 416.55 95.09 411.12 84.55 421.94 84.53"/><polygon id="_Path_368" data-name="&lt;Path&gt;" class="cls-10" points="411.15 105.65 400.33 105.67 405.72 95.11 411.12 84.55 416.55 95.09 421.98 105.63 411.15 105.65"/><polygon id="_Path_369" data-name="&lt;Path&gt;" class="cls-12" points="400.29 84.57 411.12 84.55 405.72 95.11 400.33 105.67 394.9 95.12 389.47 84.58 400.29 84.57"/><polygon id="_Path_370" data-name="&lt;Path&gt;" class="cls-11" points="389.5 105.69 378.68 105.7 384.07 95.14 389.47 84.58 394.9 95.12 400.33 105.67 389.5 105.69"/><polygon id="_Path_371" data-name="&lt;Path&gt;" class="cls-9" points="378.64 84.6 389.47 84.58 384.07 95.14 378.68 105.7 373.25 95.16 367.82 84.62 378.64 84.6"/><polygon id="_Path_372" data-name="&lt;Path&gt;" class="cls-10" points="367.85 105.72 357.03 105.74 362.43 95.18 367.82 84.62 373.25 95.16 378.68 105.7 367.85 105.72"/><polygon id="_Path_373" data-name="&lt;Path&gt;" class="cls-11" points="357 84.64 367.82 84.62 362.43 95.18 357.03 105.74 351.6 95.2 346.17 84.66 357 84.64"/><polygon id="_Path_374" data-name="&lt;Path&gt;" class="cls-9" points="346.21 105.76 335.38 105.78 340.78 95.22 346.17 84.66 351.6 95.2 357.03 105.74 346.21 105.76"/><polygon id="_Path_375" data-name="&lt;Path&gt;" class="cls-11" points="335.34 84.68 346.17 84.66 340.78 95.22 335.38 105.78 329.95 95.23 324.52 84.69 335.34 84.68"/><polygon id="_Path_376" data-name="&lt;Path&gt;" class="cls-10" points="324.55 105.8 313.73 105.81 319.13 95.25 324.52 84.69 329.95 95.23 335.38 105.78 324.55 105.8"/><polygon id="_Path_377" data-name="&lt;Path&gt;" class="cls-12" points="313.69 84.71 324.52 84.69 319.13 95.25 313.73 105.81 308.3 95.27 302.87 84.73 313.69 84.71"/><polygon id="_Path_378" data-name="&lt;Path&gt;" class="cls-11" points="302.91 105.83 292.08 105.85 297.48 95.29 302.87 84.73 308.3 95.27 313.73 105.81 302.91 105.83"/><polygon id="_Path_379" data-name="&lt;Path&gt;" class="cls-9" points="292.05 84.75 302.87 84.73 297.48 95.29 292.08 105.85 286.65 95.31 281.22 84.77 292.05 84.75"/><polygon id="_Path_380" data-name="&lt;Path&gt;" class="cls-10" points="281.25 105.87 270.43 105.89 275.83 95.32 281.22 84.77 286.65 95.31 292.08 105.85 281.25 105.87"/><polygon id="_Path_381" data-name="&lt;Path&gt;" class="cls-11" points="270.39 84.78 281.22 84.77 275.82 95.32 270.43 105.89 265 95.34 259.57 84.8 270.39 84.78"/><polygon id="_Path_382" data-name="&lt;Path&gt;" class="cls-10" points="476.11 105.54 465.28 105.56 470.71 116.1 476.14 126.64 481.54 116.08 486.93 105.52 476.11 105.54"/><polygon id="_Path_383" data-name="&lt;Path&gt;" class="cls-12" points="465.31 126.66 476.14 126.64 470.71 116.1 465.28 105.56 459.88 116.12 454.49 126.67 465.31 126.66"/><polygon id="_Path_384" data-name="&lt;Path&gt;" class="cls-10" points="454.45 105.58 443.63 105.6 449.06 116.14 454.49 126.67 459.88 116.12 465.28 105.56 454.45 105.58"/><polygon id="_Path_385" data-name="&lt;Path&gt;" class="cls-12" points="443.67 126.69 454.49 126.67 449.06 116.14 443.63 105.6 438.23 116.16 432.84 126.71 443.67 126.69"/><polygon id="_Path_386" data-name="&lt;Path&gt;" class="cls-11" points="432.8 105.61 421.98 105.63 427.41 116.17 432.84 126.71 438.23 116.16 443.63 105.6 432.8 105.61"/><polygon id="_Path_387" data-name="&lt;Path&gt;" class="cls-12" points="422.01 126.73 432.84 126.71 427.41 116.17 421.98 105.63 416.58 116.19 411.19 126.75 422.01 126.73"/><polygon id="_Path_388" data-name="&lt;Path&gt;" class="cls-11" points="411.15 105.65 400.33 105.67 405.76 116.21 411.19 126.75 416.58 116.19 421.98 105.63 411.15 105.65"/><polygon id="_Path_389" data-name="&lt;Path&gt;" class="cls-10" points="400.36 126.77 411.19 126.75 405.76 116.21 400.33 105.67 394.93 116.23 389.54 126.78 400.36 126.77"/><polygon id="_Path_390" data-name="&lt;Path&gt;" class="cls-13" points="389.5 105.69 378.68 105.7 384.11 116.25 389.54 126.78 394.93 116.23 400.33 105.67 389.5 105.69"/><polygon id="_Path_391" data-name="&lt;Path&gt;" class="cls-12" points="378.72 126.8 389.54 126.78 384.11 116.25 378.68 105.7 373.29 116.27 367.89 126.82 378.72 126.8"/><polygon id="_Path_392" data-name="&lt;Path&gt;" class="cls-11" points="367.85 105.72 357.03 105.74 362.46 116.28 367.89 126.82 373.29 116.27 378.68 105.7 367.85 105.72"/><polygon id="_Path_393" data-name="&lt;Path&gt;" class="cls-10" points="357.07 126.84 367.89 126.82 362.46 116.28 357.03 105.74 351.64 116.3 346.24 126.86 357.07 126.84"/><polygon id="_Path_394" data-name="&lt;Path&gt;" class="cls-13" points="346.21 105.76 335.38 105.78 340.81 116.32 346.24 126.86 351.63 116.3 357.03 105.74 346.21 105.76"/><polygon id="_Path_395" data-name="&lt;Path&gt;" class="cls-12" points="335.42 126.88 346.24 126.86 340.81 116.32 335.38 105.78 329.99 116.34 324.59 126.89 335.42 126.88"/><polygon id="_Path_396" data-name="&lt;Path&gt;" class="cls-11" points="324.55 105.8 313.73 105.81 319.16 116.36 324.59 126.89 329.99 116.34 335.38 105.78 324.55 105.8"/><polygon id="_Path_397" data-name="&lt;Path&gt;" class="cls-10" points="313.77 126.91 324.59 126.89 319.16 116.36 313.73 105.81 308.34 116.37 302.94 126.93 313.77 126.91"/><polygon id="_Path_398" data-name="&lt;Path&gt;" class="cls-13" points="302.91 105.83 292.08 105.85 297.51 116.39 302.94 126.93 308.34 116.37 313.73 105.81 302.91 105.83"/><polygon id="_Path_399" data-name="&lt;Path&gt;" class="cls-12" points="292.12 126.95 302.94 126.93 297.51 116.39 292.08 105.85 286.69 116.41 281.29 126.97 292.12 126.95"/><polygon id="_Path_400" data-name="&lt;Path&gt;" class="cls-11" points="281.25 105.87 270.43 105.89 275.86 116.43 281.29 126.97 286.69 116.41 292.08 105.85 281.25 105.87"/><polygon id="_Path_401" data-name="&lt;Path&gt;" class="cls-10" points="270.47 126.98 281.29 126.97 275.86 116.43 270.43 105.89 265.04 116.45 259.64 127 270.47 126.98"/><polygon id="_Path_402" data-name="&lt;Path&gt;" class="cls-13" points="476.18 147.75 465.35 147.76 470.75 137.2 476.14 126.64 481.57 137.18 487 147.73 476.18 147.75"/><polygon id="_Path_403" data-name="&lt;Path&gt;" class="cls-12" points="465.31 126.66 476.14 126.64 470.75 137.2 465.35 147.76 459.92 137.22 454.49 126.67 465.31 126.66"/><polygon id="_Path_404" data-name="&lt;Path&gt;" class="cls-13" points="454.52 147.78 443.7 147.8 449.09 137.24 454.49 126.67 459.92 137.22 465.35 147.76 454.52 147.78"/><polygon id="_Path_405" data-name="&lt;Path&gt;" class="cls-14" points="443.67 126.69 454.49 126.67 449.09 137.24 443.7 147.8 438.27 137.25 432.84 126.71 443.67 126.69"/><polygon id="_Path_406" data-name="&lt;Path&gt;" class="cls-13" points="432.87 147.82 422.05 147.84 427.44 137.27 432.84 126.71 438.27 137.25 443.7 147.8 432.87 147.82"/><polygon id="_Path_407" data-name="&lt;Path&gt;" class="cls-12" points="422.01 126.73 432.84 126.71 427.44 137.27 422.05 147.84 416.62 137.29 411.19 126.75 422.01 126.73"/><polygon id="_Path_408" data-name="&lt;Path&gt;" class="cls-13" points="411.22 147.85 400.4 147.87 405.8 137.31 411.19 126.75 416.62 137.29 422.05 147.84 411.22 147.85"/><polygon id="_Path_409" data-name="&lt;Path&gt;" class="cls-12" points="400.36 126.77 411.19 126.75 405.8 137.31 400.4 147.87 394.97 137.33 389.54 126.78 400.36 126.77"/><polygon id="_Path_410" data-name="&lt;Path&gt;" class="cls-13" points="389.58 147.89 378.75 147.91 384.15 137.35 389.54 126.78 394.97 137.33 400.4 147.87 389.58 147.89"/><polygon id="_Path_411" data-name="&lt;Path&gt;" class="cls-11" points="378.72 126.8 389.54 126.78 384.14 137.35 378.75 147.91 373.32 137.36 367.89 126.82 378.72 126.8"/><polygon id="_Path_412" data-name="&lt;Path&gt;" class="cls-12" points="367.92 147.93 357.1 147.94 362.5 137.38 367.89 126.82 373.32 137.36 378.75 147.91 367.92 147.93"/><polygon id="_Path_413" data-name="&lt;Path&gt;" class="cls-13" points="357.07 126.84 367.89 126.82 362.5 137.38 357.1 147.94 351.67 137.4 346.24 126.86 357.07 126.84"/><polygon id="_Path_414" data-name="&lt;Path&gt;" class="cls-12" points="346.28 147.96 335.45 147.98 340.85 137.42 346.24 126.86 351.67 137.4 357.1 147.94 346.28 147.96"/><polygon id="_Path_415" data-name="&lt;Path&gt;" class="cls-11" points="335.42 126.88 346.24 126.86 340.85 137.42 335.45 147.98 330.02 137.44 324.59 126.89 335.42 126.88"/><polygon id="_Path_416" data-name="&lt;Path&gt;" class="cls-13" points="324.62 148 313.8 148.02 319.2 137.46 324.59 126.89 330.02 137.44 335.45 147.98 324.62 148"/><polygon id="_Path_417" data-name="&lt;Path&gt;" class="cls-12" points="313.77 126.91 324.59 126.89 319.2 137.46 313.8 148.02 308.37 137.47 302.94 126.93 313.77 126.91"/><polygon id="_Path_418" data-name="&lt;Path&gt;" class="cls-13" points="302.98 148.04 292.15 148.05 297.55 137.49 302.94 126.93 308.37 137.47 313.8 148.02 302.98 148.04"/><polygon id="_Path_419" data-name="&lt;Path&gt;" class="cls-14" points="292.12 126.95 302.94 126.93 297.55 137.49 292.15 148.05 286.72 137.51 281.29 126.97 292.12 126.95"/><polygon id="_Path_420" data-name="&lt;Path&gt;" class="cls-13" points="281.33 148.07 270.5 148.09 275.9 137.53 281.29 126.97 286.72 137.51 292.15 148.05 281.33 148.07"/><polygon id="_Path_421" data-name="&lt;Path&gt;" class="cls-12" points="270.47 126.98 281.29 126.97 275.89 137.53 270.5 148.09 265.07 137.55 259.64 127 270.47 126.98"/><polygon id="_Path_422" data-name="&lt;Path&gt;" class="cls-15" points="476.18 147.75 465.35 147.76 470.78 158.3 476.21 168.84 481.61 158.29 487 147.73 476.18 147.75"/><polygon id="_Path_423" data-name="&lt;Path&gt;" class="cls-13" points="465.38 168.86 476.21 168.84 470.78 158.3 465.35 147.76 459.95 158.32 454.56 168.88 465.38 168.86"/><polygon id="_Path_424" data-name="&lt;Path&gt;" class="cls-12" points="454.52 147.78 443.7 147.8 449.13 158.34 454.56 168.88 459.95 158.32 465.35 147.76 454.52 147.78"/><polygon id="_Path_425" data-name="&lt;Path&gt;" class="cls-13" points="443.74 168.9 454.56 168.88 449.13 158.34 443.7 147.8 438.3 158.36 432.91 168.92 443.74 168.9"/><polygon id="_Path_426" data-name="&lt;Path&gt;" class="cls-15" points="432.87 147.82 422.05 147.84 427.48 158.38 432.91 168.92 438.3 158.36 443.7 147.8 432.87 147.82"/><polygon id="_Path_427" data-name="&lt;Path&gt;" class="cls-16" points="422.08 168.94 432.91 168.92 427.48 158.38 422.05 147.84 416.65 158.4 411.26 168.95 422.08 168.94"/><polygon id="_Path_428" data-name="&lt;Path&gt;" class="cls-15" points="411.22 147.85 400.4 147.87 405.83 158.41 411.26 168.95 416.65 158.4 422.05 147.84 411.22 147.85"/><polygon id="_Path_429" data-name="&lt;Path&gt;" class="cls-12" points="400.44 168.97 411.26 168.95 405.83 158.41 400.4 147.87 395 158.43 389.61 168.99 400.44 168.97"/><polygon id="_Path_430" data-name="&lt;Path&gt;" class="cls-16" points="389.58 147.89 378.75 147.91 384.18 158.45 389.61 168.99 395 158.43 400.4 147.87 389.58 147.89"/><polygon id="_Path_431" data-name="&lt;Path&gt;" class="cls-15" points="378.79 169.01 389.61 168.99 384.18 158.45 378.75 147.91 373.36 158.47 367.96 169.03 378.79 169.01"/><polygon id="_Path_432" data-name="&lt;Path&gt;" class="cls-12" points="367.92 147.93 357.1 147.94 362.53 158.49 367.96 169.03 373.36 158.47 378.75 147.91 367.92 147.93"/><polygon id="_Path_433" data-name="&lt;Path&gt;" class="cls-16" points="357.14 169.04 367.96 169.03 362.53 158.49 357.1 147.94 351.71 158.5 346.31 169.06 357.14 169.04"/><polygon id="_Path_434" data-name="&lt;Path&gt;" class="cls-14" points="346.28 147.96 335.45 147.98 340.88 158.52 346.31 169.06 351.71 158.5 357.1 147.94 346.28 147.96"/><polygon id="_Path_435" data-name="&lt;Path&gt;" class="cls-15" points="335.49 169.08 346.31 169.06 340.88 158.52 335.45 147.98 330.06 158.54 324.66 169.1 335.49 169.08"/><polygon id="_Path_436" data-name="&lt;Path&gt;" class="cls-16" points="324.62 148 313.8 148.02 319.23 158.56 324.66 169.1 330.06 158.54 335.45 147.98 324.62 148"/><polygon id="_Path_437" data-name="&lt;Path&gt;" class="cls-15" points="313.84 169.12 324.66 169.1 319.23 158.56 313.8 148.02 308.41 158.58 303.01 169.13 313.84 169.12"/><polygon id="_Path_438" data-name="&lt;Path&gt;" class="cls-14" points="302.98 148.04 292.15 148.05 297.58 158.59 303.01 169.13 308.41 158.58 313.8 148.02 302.98 148.04"/><polygon id="_Path_439" data-name="&lt;Path&gt;" class="cls-16" points="292.19 169.15 303.01 169.13 297.58 158.59 292.15 148.05 286.76 158.61 281.36 169.17 292.19 169.15"/><polygon id="_Path_440" data-name="&lt;Path&gt;" class="cls-12" points="281.33 148.07 270.5 148.09 275.93 158.63 281.36 169.17 286.76 158.61 292.15 148.05 281.33 148.07"/><polygon id="_Path_441" data-name="&lt;Path&gt;" class="cls-15" points="270.54 169.19 281.36 169.17 275.93 158.63 270.5 148.09 265.11 158.65 259.71 169.21 270.54 169.19"/><polygon id="_Path_442" data-name="&lt;Path&gt;" class="cls-16" points="476.25 189.95 465.42 189.97 470.82 179.4 476.21 168.84 481.64 179.39 487.07 189.93 476.25 189.95"/><polygon id="_Path_443" data-name="&lt;Path&gt;" class="cls-13" points="465.38 168.86 476.21 168.84 470.81 179.4 465.42 189.97 459.99 179.42 454.56 168.88 465.38 168.86"/><polygon id="_Path_444" data-name="&lt;Path&gt;" class="cls-17" points="454.6 189.98 443.77 190 449.17 179.44 454.56 168.88 459.99 179.42 465.42 189.97 454.6 189.98"/><polygon id="_Path_445" data-name="&lt;Path&gt;" class="cls-16" points="443.74 168.9 454.56 168.88 449.17 179.44 443.77 190 438.34 179.46 432.91 168.92 443.74 168.9"/><polygon id="_Path_446" data-name="&lt;Path&gt;" class="cls-17" points="432.94 190.02 422.12 190.04 427.51 179.48 432.91 168.92 438.34 179.46 443.77 190 432.94 190.02"/><polygon id="_Path_447" data-name="&lt;Path&gt;" class="cls-15" points="422.08 168.94 432.91 168.92 427.51 179.48 422.12 190.04 416.69 179.49 411.26 168.95 422.08 168.94"/><polygon id="_Path_448" data-name="&lt;Path&gt;" class="cls-13" points="411.3 190.06 400.47 190.07 405.87 179.51 411.26 168.95 416.69 179.49 422.12 190.04 411.3 190.06"/><polygon id="_Path_449" data-name="&lt;Path&gt;" class="cls-15" points="400.44 168.97 411.26 168.95 405.87 179.51 400.47 190.07 395.04 179.53 389.61 168.99 400.44 168.97"/><polygon id="_Path_450" data-name="&lt;Path&gt;" class="cls-16" points="389.65 190.09 378.82 190.11 384.22 179.55 389.61 168.99 395.04 179.53 400.47 190.07 389.65 190.09"/><polygon id="_Path_451" data-name="&lt;Path&gt;" class="cls-17" points="378.79 169.01 389.61 168.99 384.21 179.55 378.82 190.11 373.39 179.57 367.96 169.03 378.79 169.01"/><polygon id="_Path_452" data-name="&lt;Path&gt;" class="cls-13" points="368 190.13 357.17 190.15 362.57 179.59 367.96 169.03 373.39 179.57 378.82 190.11 368 190.13"/><polygon id="_Path_453" data-name="&lt;Path&gt;" class="cls-15" points="357.14 169.04 367.96 169.03 362.57 179.59 357.17 190.15 351.74 179.6 346.31 169.06 357.14 169.04"/><polygon id="_Path_454" data-name="&lt;Path&gt;" class="cls-16" points="346.35 190.17 335.52 190.18 340.92 179.62 346.31 169.06 351.74 179.6 357.17 190.15 346.35 190.17"/><polygon id="_Path_455" data-name="&lt;Path&gt;" class="cls-13" points="335.49 169.08 346.31 169.06 340.92 179.62 335.52 190.18 330.09 179.64 324.66 169.1 335.49 169.08"/><polygon id="_Path_456" data-name="&lt;Path&gt;" class="cls-17" points="324.69 190.2 313.87 190.22 319.27 179.66 324.66 169.1 330.09 179.64 335.52 190.18 324.69 190.2"/><polygon id="_Path_457" data-name="&lt;Path&gt;" class="cls-16" points="313.84 169.12 324.66 169.1 319.27 179.66 313.87 190.22 308.44 179.68 303.01 169.13 313.84 169.12"/><polygon id="_Path_458" data-name="&lt;Path&gt;" class="cls-15" points="303.05 190.24 292.22 190.26 297.62 179.69 303.01 169.13 308.44 179.68 313.87 190.22 303.05 190.24"/><polygon id="_Path_459" data-name="&lt;Path&gt;" class="cls-13" points="292.19 169.15 303.01 169.13 297.62 179.69 292.22 190.26 286.79 179.71 281.36 169.17 292.19 169.15"/><polygon id="_Path_460" data-name="&lt;Path&gt;" class="cls-17" points="281.4 190.27 270.57 190.29 275.97 179.73 281.36 169.17 286.79 179.71 292.22 190.26 281.4 190.27"/><polygon id="_Path_461" data-name="&lt;Path&gt;" class="cls-16" points="270.54 169.19 281.36 169.17 275.96 179.73 270.57 190.29 265.14 179.75 259.71 169.21 270.54 169.19"/><polygon id="_Path_462" data-name="&lt;Path&gt;" class="cls-18" points="476.25 189.95 465.42 189.97 470.85 200.51 476.28 211.05 481.68 200.49 487.07 189.93 476.25 189.95"/><polygon id="_Path_463" data-name="&lt;Path&gt;" class="cls-17" points="465.46 211.06 476.28 211.05 470.85 200.51 465.42 189.97 460.03 200.53 454.63 211.08 465.46 211.06"/><polygon id="_Path_464" data-name="&lt;Path&gt;" class="cls-16" points="454.6 189.98 443.77 190 449.2 200.54 454.63 211.08 460.03 200.53 465.42 189.97 454.6 189.98"/><polygon id="_Path_465" data-name="&lt;Path&gt;" class="cls-16" points="443.81 211.1 454.63 211.08 449.2 200.54 443.77 190 438.38 200.56 432.98 211.12 443.81 211.1"/><polygon id="_Path_466" data-name="&lt;Path&gt;" class="cls-15" points="432.94 190.02 422.12 190.04 427.55 200.58 432.98 211.12 438.38 200.56 443.77 190 432.94 190.02"/><polygon id="_Path_467" data-name="&lt;Path&gt;" class="cls-17" points="422.15 211.14 432.98 211.12 427.55 200.58 422.12 190.04 416.73 200.6 411.33 211.16 422.15 211.14"/><polygon id="_Path_468" data-name="&lt;Path&gt;" class="cls-18" points="411.3 190.06 400.47 190.07 405.9 200.62 411.33 211.16 416.73 200.6 422.12 190.04 411.3 190.06"/><polygon id="_Path_469" data-name="&lt;Path&gt;" class="cls-17" points="400.51 211.17 411.33 211.16 405.9 200.62 400.47 190.07 395.08 200.63 389.68 211.19 400.51 211.17"/><polygon id="_Path_470" data-name="&lt;Path&gt;" class="cls-15" points="389.65 190.09 378.82 190.11 384.25 200.65 389.68 211.19 395.08 200.63 400.47 190.07 389.65 190.09"/><polygon id="_Path_471" data-name="&lt;Path&gt;" class="cls-18" points="378.86 211.21 389.68 211.19 384.25 200.65 378.82 190.11 373.43 200.67 368.03 211.23 378.86 211.21"/><polygon id="_Path_472" data-name="&lt;Path&gt;" class="cls-16" points="368 190.13 357.17 190.15 362.6 200.69 368.03 211.23 373.43 200.67 378.82 190.11 368 190.13"/><polygon id="_Path_473" data-name="&lt;Path&gt;" class="cls-19" points="357.21 211.25 368.03 211.23 362.6 200.69 357.17 190.15 351.78 200.71 346.38 211.26 357.21 211.25"/><polygon id="_Path_474" data-name="&lt;Path&gt;" class="cls-17" points="346.35 190.17 335.52 190.18 340.95 200.72 346.38 211.26 351.78 200.71 357.17 190.15 346.35 190.17"/><polygon id="_Path_475" data-name="&lt;Path&gt;" class="cls-18" points="335.56 211.28 346.38 211.26 340.95 200.72 335.52 190.18 330.13 200.74 324.73 211.3 335.56 211.28"/><polygon id="_Path_476" data-name="&lt;Path&gt;" class="cls-16" points="324.69 190.2 313.87 190.22 319.3 200.76 324.73 211.3 330.13 200.74 335.52 190.18 324.69 190.2"/><polygon id="_Path_477" data-name="&lt;Path&gt;" class="cls-15" points="313.91 211.32 324.73 211.3 319.3 200.76 313.87 190.22 308.48 200.78 303.08 211.34 313.91 211.32"/><polygon id="_Path_478" data-name="&lt;Path&gt;" class="cls-17" points="303.05 190.24 292.22 190.26 297.65 200.8 303.08 211.34 308.48 200.78 313.87 190.22 303.05 190.24"/><polygon id="_Path_479" data-name="&lt;Path&gt;" class="cls-18" points="292.26 211.35 303.08 211.34 297.65 200.8 292.22 190.26 286.83 200.81 281.43 211.37 292.26 211.35"/><polygon id="_Path_480" data-name="&lt;Path&gt;" class="cls-17" points="281.4 190.27 270.57 190.29 276 200.83 281.43 211.37 286.83 200.81 292.22 190.26 281.4 190.27"/><polygon id="_Path_481" data-name="&lt;Path&gt;" class="cls-20" points="270.61 211.39 281.43 211.37 276 200.83 270.57 190.29 265.18 200.85 259.78 211.41 270.61 211.39"/><polygon id="_Path_482" data-name="&lt;Path&gt;" class="cls-17" points="476.32 232.15 465.49 232.17 470.89 221.61 476.28 211.05 481.71 221.59 487.14 232.13 476.32 232.15"/><polygon id="_Path_483" data-name="&lt;Path&gt;" class="cls-14" points="465.46 211.06 476.28 211.05 470.89 221.61 465.49 232.17 460.06 221.63 454.63 211.08 465.46 211.06"/><polygon id="_Path_484" data-name="&lt;Path&gt;" class="cls-18" points="454.67 232.19 443.84 232.21 449.24 221.65 454.63 211.08 460.06 221.63 465.49 232.17 454.67 232.19"/><polygon id="_Path_485" data-name="&lt;Path&gt;" class="cls-17" points="443.81 211.1 454.63 211.08 449.24 221.65 443.84 232.21 438.41 221.67 432.98 211.12 443.81 211.1"/><polygon id="_Path_486" data-name="&lt;Path&gt;" class="cls-18" points="433.01 232.22 422.19 232.24 427.59 221.68 432.98 211.12 438.41 221.67 443.84 232.21 433.01 232.22"/><polygon id="_Path_487" data-name="&lt;Path&gt;" class="cls-14" points="422.15 211.14 432.98 211.12 427.59 221.68 422.19 232.24 416.76 221.7 411.33 211.16 422.15 211.14"/><polygon id="_Path_488" data-name="&lt;Path&gt;" class="cls-18" points="411.37 232.26 400.54 232.28 405.94 221.72 411.33 211.16 416.76 221.7 422.19 232.24 411.37 232.26"/><polygon id="_Path_489" data-name="&lt;Path&gt;" class="cls-18" points="400.51 211.17 411.33 211.16 405.94 221.72 400.54 232.28 395.11 221.74 389.68 211.19 400.51 211.17"/><polygon id="_Path_490" data-name="&lt;Path&gt;" class="cls-16" points="389.72 232.3 378.89 232.31 384.29 221.76 389.68 211.19 395.11 221.74 400.54 232.28 389.72 232.3"/><polygon id="_Path_491" data-name="&lt;Path&gt;" class="cls-17" points="378.86 211.21 389.68 211.19 384.29 221.76 378.89 232.31 373.46 221.78 368.03 211.23 378.86 211.21"/><polygon id="_Path_492" data-name="&lt;Path&gt;" class="cls-19" points="368.07 232.33 357.24 232.35 362.64 221.79 368.03 211.23 373.46 221.78 378.89 232.31 368.07 232.33"/><polygon id="_Path_493" data-name="&lt;Path&gt;" class="cls-14" points="357.21 211.25 368.03 211.23 362.64 221.79 357.24 232.35 351.81 221.81 346.38 211.26 357.21 211.25"/><polygon id="_Path_494" data-name="&lt;Path&gt;" class="cls-17" points="346.42 232.37 335.59 232.39 340.99 221.83 346.38 211.26 351.81 221.81 357.24 232.35 346.42 232.37"/><polygon id="_Path_495" data-name="&lt;Path&gt;" class="cls-15" points="335.56 211.28 346.38 211.26 340.99 221.83 335.59 232.39 330.16 221.85 324.73 211.3 335.56 211.28"/><polygon id="_Path_496" data-name="&lt;Path&gt;" class="cls-19" points="324.76 232.41 313.94 232.42 319.34 221.87 324.73 211.3 330.16 221.85 335.59 232.39 324.76 232.41"/><polygon id="_Path_497" data-name="&lt;Path&gt;" class="cls-17" points="313.91 211.32 324.73 211.3 319.34 221.87 313.94 232.42 308.51 221.88 303.08 211.34 313.91 211.32"/><polygon id="_Path_498" data-name="&lt;Path&gt;" class="cls-18" points="303.12 232.44 292.29 232.46 297.69 221.9 303.08 211.34 308.51 221.88 313.94 232.42 303.12 232.44"/><polygon id="_Path_499" data-name="&lt;Path&gt;" class="cls-19" points="292.26 211.35 303.08 211.34 297.69 221.9 292.29 232.46 286.86 221.92 281.43 211.37 292.26 211.35"/><polygon id="_Path_500" data-name="&lt;Path&gt;" class="cls-20" points="281.47 232.48 270.64 232.5 276.04 221.94 281.43 211.37 286.86 221.92 292.29 232.46 281.47 232.48"/><polygon id="_Path_501" data-name="&lt;Path&gt;" class="cls-19" points="270.61 211.39 281.43 211.37 276.04 221.94 270.64 232.5 265.21 221.96 259.78 211.41 270.61 211.39"/><polygon id="_Path_502" data-name="&lt;Path&gt;" class="cls-18" points="476.32 232.15 465.49 232.17 470.93 242.71 476.35 253.25 481.75 242.69 487.14 232.13 476.32 232.15"/><polygon id="_Path_503" data-name="&lt;Path&gt;" class="cls-20" points="465.53 253.27 476.35 253.25 470.92 242.71 465.49 232.17 460.1 242.73 454.7 253.29 465.53 253.27"/><polygon id="_Path_504" data-name="&lt;Path&gt;" class="cls-19" points="454.67 232.19 443.84 232.21 449.27 242.75 454.7 253.29 460.1 242.73 465.49 232.17 454.67 232.19"/><polygon id="_Path_505" data-name="&lt;Path&gt;" class="cls-17" points="443.88 253.31 454.7 253.29 449.27 242.75 443.84 232.21 438.44 242.77 433.05 253.32 443.88 253.31"/><polygon id="_Path_506" data-name="&lt;Path&gt;" class="cls-18" points="433.01 232.22 422.19 232.24 427.62 242.78 433.05 253.32 438.44 242.77 443.84 232.21 433.01 232.22"/><polygon id="_Path_507" data-name="&lt;Path&gt;" class="cls-20" points="422.23 253.34 433.05 253.32 427.62 242.78 422.19 232.24 416.8 242.8 411.4 253.36 422.23 253.34"/><polygon id="_Path_508" data-name="&lt;Path&gt;" class="cls-19" points="411.37 232.26 400.54 232.28 405.97 242.82 411.4 253.36 416.8 242.8 422.19 232.24 411.37 232.26"/><polygon id="_Path_509" data-name="&lt;Path&gt;" class="cls-18" points="400.58 253.38 411.4 253.36 405.97 242.82 400.54 232.28 395.15 242.84 389.75 253.4 400.58 253.38"/><polygon id="_Path_510" data-name="&lt;Path&gt;" class="cls-19" points="389.72 232.3 378.89 232.31 384.32 242.86 389.75 253.4 395.15 242.84 400.54 232.28 389.72 232.3"/><polygon id="_Path_511" data-name="&lt;Path&gt;" class="cls-20" points="378.93 253.42 389.75 253.4 384.32 242.86 378.89 232.31 373.5 242.88 368.1 253.43 378.93 253.42"/><polygon id="_Path_512" data-name="&lt;Path&gt;" class="cls-18" points="368.07 232.33 357.24 232.35 362.67 242.89 368.1 253.43 373.5 242.88 378.89 232.31 368.07 232.33"/><polygon id="_Path_513" data-name="&lt;Path&gt;" class="cls-20" points="357.28 253.45 368.1 253.43 362.67 242.89 357.24 232.35 351.85 242.91 346.45 253.47 357.28 253.45"/><polygon id="_Path_514" data-name="&lt;Path&gt;" class="cls-19" points="346.42 232.37 335.59 232.39 341.02 242.93 346.45 253.47 351.85 242.91 357.24 232.35 346.42 232.37"/><polygon id="_Path_515" data-name="&lt;Path&gt;" class="cls-18" points="335.63 253.49 346.45 253.47 341.02 242.93 335.59 232.39 330.2 242.95 324.8 253.51 335.63 253.49"/><polygon id="_Path_516" data-name="&lt;Path&gt;" class="cls-20" points="324.76 232.41 313.94 232.42 319.37 242.97 324.8 253.51 330.2 242.95 335.59 232.39 324.76 232.41"/><polygon id="_Path_517" data-name="&lt;Path&gt;" class="cls-18" points="313.98 253.53 324.8 253.51 319.37 242.97 313.94 232.42 308.55 242.98 303.15 253.54 313.98 253.53"/><polygon id="_Path_518" data-name="&lt;Path&gt;" class="cls-19" points="303.12 232.44 292.29 232.46 297.72 243 303.15 253.54 308.55 242.98 313.94 232.42 303.12 232.44"/><polygon id="_Path_519" data-name="&lt;Path&gt;" class="cls-20" points="292.33 253.56 303.15 253.54 297.72 243 292.29 232.46 286.9 243.02 281.5 253.58 292.33 253.56"/><polygon id="_Path_520" data-name="&lt;Path&gt;" class="cls-17" points="281.47 232.48 270.64 232.5 276.07 243.04 281.5 253.58 286.9 243.02 292.29 232.46 281.47 232.48"/><polygon id="_Path_521" data-name="&lt;Path&gt;" class="cls-18" points="270.68 253.6 281.5 253.58 276.07 243.04 270.64 232.5 265.25 243.06 259.86 253.62 270.68 253.6"/><polygon id="_Path_522" data-name="&lt;Path&gt;" class="cls-20" points="476.39 274.35 465.56 274.37 470.96 263.81 476.35 253.25 481.79 263.79 487.21 274.33 476.39 274.35"/><polygon id="_Path_523" data-name="&lt;Path&gt;" class="cls-19" points="465.53 253.27 476.35 253.25 470.96 263.81 465.56 274.37 460.13 263.83 454.7 253.29 465.53 253.27"/><polygon id="_Path_524" data-name="&lt;Path&gt;" class="cls-18" points="454.74 274.39 443.91 274.41 449.31 263.85 454.7 253.29 460.13 263.83 465.56 274.37 454.74 274.39"/><polygon id="_Path_525" data-name="&lt;Path&gt;" class="cls-20" points="443.88 253.31 454.7 253.29 449.31 263.85 443.91 274.41 438.48 263.86 433.05 253.32 443.88 253.31"/><polygon id="_Path_526" data-name="&lt;Path&gt;" class="cls-18" points="433.08 274.43 422.26 274.44 427.66 263.88 433.05 253.32 438.48 263.86 443.91 274.41 433.08 274.43"/><polygon id="_Path_527" data-name="&lt;Path&gt;" class="cls-19" points="422.23 253.34 433.05 253.32 427.66 263.88 422.26 274.44 416.83 263.9 411.4 253.36 422.23 253.34"/><polygon id="_Path_528" data-name="&lt;Path&gt;" class="cls-18" points="411.44 274.46 400.61 274.48 406.01 263.92 411.4 253.36 416.83 263.9 422.26 274.44 411.44 274.46"/><polygon id="_Path_529" data-name="&lt;Path&gt;" class="cls-20" points="400.58 253.38 411.4 253.36 406.01 263.92 400.61 274.48 395.18 263.94 389.75 253.4 400.58 253.38"/><polygon id="_Path_530" data-name="&lt;Path&gt;" class="cls-19" points="389.79 274.5 378.96 274.52 384.36 263.95 389.75 253.4 395.18 263.94 400.61 274.48 389.79 274.5"/><polygon id="_Path_531" data-name="&lt;Path&gt;" class="cls-18" points="378.93 253.42 389.75 253.4 384.36 263.95 378.96 274.52 373.53 263.97 368.1 253.43 378.93 253.42"/><polygon id="_Path_532" data-name="&lt;Path&gt;" class="cls-18" points="368.14 274.54 357.31 274.55 362.71 263.99 368.1 253.43 373.53 263.97 378.96 274.52 368.14 274.54"/><polygon id="_Path_533" data-name="&lt;Path&gt;" class="cls-20" points="357.28 253.45 368.1 253.43 362.71 263.99 357.31 274.55 351.88 264.01 346.45 253.47 357.28 253.45"/><polygon id="_Path_534" data-name="&lt;Path&gt;" class="cls-18" points="346.49 274.57 335.66 274.59 341.06 264.03 346.45 253.47 351.88 264.01 357.31 274.55 346.49 274.57"/><polygon id="_Path_535" data-name="&lt;Path&gt;" class="cls-20" points="335.63 253.49 346.45 253.47 341.06 264.03 335.66 274.59 330.24 264.05 324.8 253.51 335.63 253.49"/><polygon id="_Path_536" data-name="&lt;Path&gt;" class="cls-19" points="324.84 274.61 314.01 274.63 319.41 264.06 324.8 253.51 330.23 264.05 335.66 274.59 324.84 274.61"/><polygon id="_Path_537" data-name="&lt;Path&gt;" class="cls-20" points="313.98 253.53 324.8 253.51 319.41 264.06 314.01 274.63 308.58 264.08 303.15 253.54 313.98 253.53"/><polygon id="_Path_538" data-name="&lt;Path&gt;" class="cls-17" points="303.19 274.64 292.36 274.66 297.76 264.1 303.15 253.54 308.58 264.08 314.01 274.63 303.19 274.64"/><polygon id="_Path_539" data-name="&lt;Path&gt;" class="cls-18" points="292.33 253.56 303.15 253.54 297.76 264.1 292.36 274.66 286.93 264.12 281.5 253.58 292.33 253.56"/><polygon id="_Path_540" data-name="&lt;Path&gt;" class="cls-19" points="281.54 274.68 270.71 274.7 276.11 264.14 281.5 253.58 286.93 264.12 292.36 274.66 281.54 274.68"/><polygon id="_Path_541" data-name="&lt;Path&gt;" class="cls-20" points="270.68 253.6 281.5 253.58 276.11 264.14 270.71 274.7 265.29 264.15 259.86 253.62 270.68 253.6"/></g><g id="_Group_11" data-name="&lt;Group&gt;"><polygon id="_Path_542" data-name="&lt;Path&gt;" class="cls-6" points="270.25 0.38 259.43 0.4 264.86 10.94 270.29 21.48 275.68 10.92 281.08 0.36 270.25 0.38"/><polygon id="_Path_543" data-name="&lt;Path&gt;" class="cls-5" points="281.11 21.46 291.94 21.44 286.51 10.9 281.08 0.36 275.68 10.92 270.29 21.48 281.11 21.46"/><polygon id="_Path_544" data-name="&lt;Path&gt;" class="cls-6" points="291.9 0.34 281.08 0.36 286.51 10.9 291.94 21.44 297.33 10.89 302.73 0.33 291.9 0.34"/><polygon id="_Path_545" data-name="&lt;Path&gt;" class="cls-7" points="302.76 21.43 313.59 21.41 308.16 10.87 302.73 0.33 297.33 10.89 291.94 21.44 302.76 21.43"/><polygon id="_Path_546" data-name="&lt;Path&gt;" class="cls-6" points="313.55 0.31 302.73 0.33 308.16 10.87 313.59 21.41 318.98 10.85 324.38 0.29 313.55 0.31"/><polygon id="_Path_547" data-name="&lt;Path&gt;" class="cls-5" points="324.41 21.39 335.24 21.37 329.81 10.83 324.38 0.29 318.98 10.85 313.59 21.41 324.41 21.39"/><polygon id="_Path_548" data-name="&lt;Path&gt;" class="cls-7" points="335.2 0.27 324.38 0.29 329.81 10.83 335.24 21.37 340.63 10.81 346.03 0.25 335.2 0.27"/><polygon id="_Path_549" data-name="&lt;Path&gt;" class="cls-5" points="346.06 21.35 356.89 21.34 351.45 10.79 346.03 0.25 340.63 10.81 335.24 21.37 346.06 21.35"/><polygon id="_Path_550" data-name="&lt;Path&gt;" class="cls-6" points="356.85 0.24 346.03 0.25 351.46 10.79 356.89 21.34 362.28 10.78 367.68 0.22 356.85 0.24"/><polygon id="_Path_551" data-name="&lt;Path&gt;" class="cls-7" points="367.71 21.32 378.54 21.3 373.11 10.76 367.68 0.22 362.28 10.78 356.89 21.34 367.71 21.32"/><polygon id="_Path_552" data-name="&lt;Path&gt;" class="cls-5" points="378.5 0.2 367.68 0.22 373.11 10.76 378.54 21.3 383.93 10.74 389.33 0.18 378.5 0.2"/><polygon id="_Path_553" data-name="&lt;Path&gt;" class="cls-6" points="389.36 21.28 400.19 21.26 394.76 10.72 389.32 0.18 383.93 10.74 378.54 21.3 389.36 21.28"/><polygon id="_Path_554" data-name="&lt;Path&gt;" class="cls-7" points="400.15 0.16 389.33 0.18 394.76 10.72 400.19 21.26 405.58 10.7 410.98 0.14 400.15 0.16"/><polygon id="_Path_555" data-name="&lt;Path&gt;" class="cls-5" points="411.01 21.24 421.83 21.23 416.41 10.69 410.98 0.14 405.58 10.7 400.19 21.26 411.01 21.24"/><polygon id="_Path_556" data-name="&lt;Path&gt;" class="cls-6" points="421.8 0.13 410.98 0.14 416.41 10.69 421.83 21.23 427.23 10.67 432.62 0.11 421.8 0.13"/><polygon id="_Path_557" data-name="&lt;Path&gt;" class="cls-5" points="432.66 21.21 443.48 21.19 438.06 10.65 432.62 0.11 427.23 10.67 421.83 21.23 432.66 21.21"/><polygon id="_Path_558" data-name="&lt;Path&gt;" class="cls-6" points="443.45 0.09 432.62 0.11 438.06 10.65 443.48 21.19 448.88 10.63 454.27 0.07 443.45 0.09"/><polygon id="_Path_559" data-name="&lt;Path&gt;" class="cls-7" points="454.31 21.17 465.14 21.15 459.7 10.61 454.27 0.07 448.88 10.63 443.48 21.19 454.31 21.17"/><polygon id="_Path_560" data-name="&lt;Path&gt;" class="cls-5" points="465.1 0.05 454.27 0.07 459.7 10.61 465.14 21.15 470.53 10.6 475.93 0.04 465.1 0.05"/><polygon id="_Path_561" data-name="&lt;Path&gt;" class="cls-6" points="475.96 21.14 486.78 21.12 481.35 10.58 475.93 0.04 470.53 10.6 465.14 21.15 475.96 21.14"/><polygon id="_Path_562" data-name="&lt;Path&gt;" class="cls-5" points="497.62 21.1 486.79 21.12 492.22 31.66 497.65 42.2 503.05 31.64 508.44 21.08 497.62 21.1"/><polygon id="_Path_563" data-name="&lt;Path&gt;" class="cls-6" points="486.82 42.22 497.65 42.2 492.22 31.66 486.79 21.12 481.39 31.68 476 42.23 486.82 42.22"/><polygon id="_Path_564" data-name="&lt;Path&gt;" class="cls-7" points="497.69 63.3 486.86 63.32 492.26 52.76 497.65 42.2 503.08 52.74 508.51 63.28 497.69 63.3"/><polygon id="_Path_565" data-name="&lt;Path&gt;" class="cls-8" points="486.82 42.22 497.65 42.2 492.25 52.76 486.86 63.32 481.43 52.78 476 42.23 486.82 42.22"/><polygon id="_Path_566" data-name="&lt;Path&gt;" class="cls-9" points="497.69 63.3 486.86 63.32 492.29 73.86 497.72 84.4 503.12 73.84 508.51 63.28 497.69 63.3"/><polygon id="_Path_567" data-name="&lt;Path&gt;" class="cls-8" points="486.9 84.42 497.72 84.4 492.29 73.86 486.86 63.32 481.47 73.88 476.07 84.44 486.9 84.42"/><polygon id="_Path_568" data-name="&lt;Path&gt;" class="cls-11" points="497.76 105.5 486.93 105.52 492.33 94.96 497.72 84.4 503.15 94.94 508.58 105.49 497.76 105.5"/><polygon id="_Path_569" data-name="&lt;Path&gt;" class="cls-10" points="486.9 84.42 497.72 84.4 492.33 94.96 486.93 105.52 481.5 94.98 476.07 84.44 486.9 84.42"/><polygon id="_Path_570" data-name="&lt;Path&gt;" class="cls-10" points="497.76 105.5 486.93 105.52 492.37 116.06 497.79 126.6 503.19 116.05 508.58 105.49 497.76 105.5"/><polygon id="_Path_571" data-name="&lt;Path&gt;" class="cls-12" points="486.97 126.62 497.79 126.6 492.36 116.06 486.93 105.52 481.54 116.08 476.14 126.64 486.97 126.62"/><polygon id="_Path_572" data-name="&lt;Path&gt;" class="cls-13" points="497.83 147.71 487 147.73 492.4 137.16 497.79 126.6 503.23 137.15 508.65 147.69 497.83 147.71"/><polygon id="_Path_573" data-name="&lt;Path&gt;" class="cls-12" points="486.97 126.62 497.79 126.6 492.4 137.16 487 147.73 481.57 137.18 476.14 126.64 486.97 126.62"/><polygon id="_Path_574" data-name="&lt;Path&gt;" class="cls-15" points="497.83 147.71 487 147.73 492.44 158.27 497.86 168.81 503.26 158.25 508.65 147.69 497.83 147.71"/><polygon id="_Path_575" data-name="&lt;Path&gt;" class="cls-13" points="487.04 168.83 497.86 168.81 492.43 158.27 487 147.73 481.61 158.29 476.21 168.84 487.04 168.83"/><polygon id="_Path_576" data-name="&lt;Path&gt;" class="cls-16" points="497.9 189.91 487.07 189.93 492.47 179.37 497.86 168.81 503.3 179.35 508.72 189.89 497.9 189.91"/><polygon id="_Path_577" data-name="&lt;Path&gt;" class="cls-13" points="487.04 168.83 497.86 168.81 492.47 179.37 487.07 189.93 481.64 179.39 476.21 168.84 487.04 168.83"/><polygon id="_Path_578" data-name="&lt;Path&gt;" class="cls-18" points="497.9 189.91 487.07 189.93 492.51 200.47 497.93 211.01 503.33 200.45 508.72 189.89 497.9 189.91"/><polygon id="_Path_579" data-name="&lt;Path&gt;" class="cls-17" points="487.11 211.03 497.93 211.01 492.5 200.47 487.07 189.93 481.68 200.49 476.28 211.05 487.11 211.03"/><polygon id="_Path_580" data-name="&lt;Path&gt;" class="cls-17" points="497.97 232.11 487.14 232.13 492.54 221.57 497.93 211.01 503.37 221.56 508.8 232.1 497.97 232.11"/><polygon id="_Path_581" data-name="&lt;Path&gt;" class="cls-14" points="487.11 211.03 497.93 211.01 492.54 221.57 487.14 232.13 481.71 221.59 476.28 211.05 487.11 211.03"/><polygon id="_Path_582" data-name="&lt;Path&gt;" class="cls-18" points="497.97 232.11 487.14 232.13 492.58 242.68 498 253.22 503.4 242.66 508.8 232.1 497.97 232.11"/><polygon id="_Path_583" data-name="&lt;Path&gt;" class="cls-20" points="487.18 253.23 498 253.22 492.57 242.68 487.14 232.13 481.75 242.69 476.36 253.25 487.18 253.23"/><polygon id="_Path_584" data-name="&lt;Path&gt;" class="cls-20" points="498.04 274.32 487.21 274.33 492.61 263.77 498 253.22 503.44 263.75 508.87 274.3 498.04 274.32"/><polygon id="_Path_585" data-name="&lt;Path&gt;" class="cls-19" points="487.18 253.23 498 253.22 492.61 263.77 487.21 274.33 481.79 263.79 476.36 253.25 487.18 253.23"/><polygon id="_Path_586" data-name="&lt;Path&gt;" class="cls-5" points="486.75 0.02 475.93 0.04 481.36 10.58 486.79 21.12 492.18 10.56 497.58 0 486.75 0.02"/><polygon id="_Path_587" data-name="&lt;Path&gt;" class="cls-6" points="497.61 21.1 508.44 21.08 503.01 10.54 497.58 0 492.18 10.56 486.79 21.12 497.61 21.1"/></g></g></g></g></g></g></g></g></g></g></svg>